<svg xmlns="http://www.w3.org/2000/svg" viewBox="0 0 64 64"><g data-name="Layer 65"><path d="M60 11H27.08V4a1 1 0 0 0-1-1h-9.5a1 1 0 0 0-1 1v7h-1.5V7.63a1 1 0 0 0-1-1H6.92a1 1 0 0 0-1 1V11H4a1 1 0 0 0-1 1v6.58a1 1 0 0 0 1 1h11.58V59H4a1 1 0 0 0 0 2h28a1 1 0 0 0 0-2h-4.92V19.58h18.7v13.86l-9.89 8.36a1 1 0 0 0 .64 1.76h2.25v10.17a1 1 0 0 0 1 1h14a1 1 0 0 0 1-1V43.56H57a1 1 0 0 0 .65-1.76l-4.4-3.72v-3.19a1 1 0 0 0-2 0v1.5l-3.5-3V19.58H60a1 1 0 0 0 1-1V12a1 1 0 0 0-1-1Zm-7.22 41.73h-12v-9.17h12Zm-6-35.15h-1.43l1.37-1 1.38 1ZM53.64 13h2.76L55 14Zm-.28 2.29-2.49 1.88-2.49-1.88 2.49-1.88ZM46.72 14l-1.37-1h2.75Zm-1.66 1.25-2.49 1.89-2.5-1.89 2.5-1.88ZM38.41 14 37 13h2.76Zm-1.66 1.25-2.49 1.88-2.49-1.88 2.49-1.88ZM30.12 14l-1.38-1h2.75Zm-1.66 1.25-1.38 1v-2Zm-5.64-7.2 2.26-2v4.09Zm.24 2.95h-3.45l1.72-1.56Zm-1.73-4.25L19.4 5h3.87Zm-1.49 1.34-2.26 2.05V6.05ZM17.58 13h7.5v4.58h-7.5Zm7.5 28.4-2.2-1.86 2.2-1.86Zm0-7.64-2.2-1.86 2.2-1.9Zm-.78 2-3 2.51-3-2.51 3-2.51Zm-6.72 2 2.2 1.86-2.2 1.86Zm0-3.92V30l2.2 1.86Zm0 11.58 2.2 1.86-2.2 1.86Zm.77-2 3-2.52 3 2.52-3 2.52Zm6.73 2v3.72l-2.2-1.86Zm-3.75-14.83-3-2.52 3-2.52 3 2.52Zm-3.75-4.49v-3.72l2.2 1.86Zm0 26.88 2.2 1.86-2.2 1.86Zm.78-2 3-2.51 3 2.51-3 2.51Zm6.72 2v3.72l-2.2-1.86Zm0-26.88-2.2-1.86 2.2-1.86Zm-3.75-3.17-3.75-3.16v-.19h7.5v.19Zm0 33.22L24.71 59H18Zm8.79-39.6 1.37 1h-2.75Zm8.29 0 1.38 1H37Zm16.61 0 1.38 1h-2.76Zm1.66-1.25L59 13.54V17ZM5 13h.92v4.58H5Zm9.08 4.58V13h1.5v4.58Z"/><path d="M37.17 59H35.5a1 1 0 0 0 0 2h1.67a1 1 0 0 0 0-2Z"/></g></svg>