<svg xmlns="http://www.w3.org/2000/svg" width="25" height="22.223" viewBox="0 0 25 22.223"><path d="M24.8,8.418l-.982-.982a.694.694,0,0,0-.982,0l-.491.491L21.09,6.672A2.766,2.766,0,0,0,20.38,4L18.416,2.034a6.945,6.945,0,0,0-9.821,0L12.524,4v.814a2.776,2.776,0,0,0,.814,1.964L15.47,8.908a2.766,2.766,0,0,0,2.674.71L19.4,10.872l-.491.491a.694.694,0,0,0,0,.982l.982.982a.694.694,0,0,0,.982,0L24.8,9.4A.7.7,0,0,0,24.8,8.418Zm-12.445-.66a4.212,4.212,0,0,1-.428-.519L.856,17.576A2.684,2.684,0,1,0,4.649,21.37L14.985,10.3a4.22,4.22,0,0,1-.5-.408L12.355,7.758Z" transform="translate(-0.003)" fill="#192657"/></svg>