<svg xmlns="http://www.w3.org/2000/svg" width="23.25" height="31" viewBox="0 0 23.25 31"><path d="M13.563,8.234V0H1.453A1.45,1.45,0,0,0,0,1.453V29.547A1.45,1.45,0,0,0,1.453,31H21.8a1.45,1.45,0,0,0,1.453-1.453V9.688H15.016A1.457,1.457,0,0,1,13.563,8.234Zm3.875,14.289a.729.729,0,0,1-.727.727H6.539a.729.729,0,0,1-.727-.727v-.484a.729.729,0,0,1,.727-.727H16.711a.729.729,0,0,1,.727.727Zm0-3.875a.729.729,0,0,1-.727.727H6.539a.729.729,0,0,1-.727-.727v-.484a.729.729,0,0,1,.727-.727H16.711a.729.729,0,0,1,.727.727Zm0-4.359v.484a.729.729,0,0,1-.727.727H6.539a.729.729,0,0,1-.727-.727v-.484a.729.729,0,0,1,.727-.727H16.711A.729.729,0,0,1,17.437,14.289ZM23.25,7.381V7.75H15.5V0h.369A1.452,1.452,0,0,1,16.9.424l5.928,5.934A1.448,1.448,0,0,1,23.25,7.381Z" fill="#192657"/></svg>