<svg xmlns="http://www.w3.org/2000/svg" width="50" height="50" viewBox="0 0 50 50"><path d="M10.685,23.823l13.142-13.14L19.519,6.374,13.5,12.4a.773.773,0,0,1-1.095,0L11.306,11.3a.773.773,0,0,1,0-1.095l6.023-6.023L14.044.9A3.1,3.1,0,0,0,9.663.9L.9,9.659a3.1,3.1,0,0,0,0,4.381ZM48.621,12.417a4.691,4.691,0,0,0,0-6.634L44.2,1.364a4.693,4.693,0,0,0-6.636,0L33.072,5.857,44.127,16.912l4.494-4.5ZM30.862,8.068l-29,29L.027,47.56a2.073,2.073,0,0,0,2.4,2.4l10.493-1.84,29-29ZM49.087,35.942,45.8,32.657,39.779,38.68a.773.773,0,0,1-1.095,0L37.59,37.585a.775.775,0,0,1,0-1.095l6.023-6.023-4.31-4.31L26.16,39.3l9.786,9.785a3.1,3.1,0,0,0,4.381,0l8.761-8.76a3.1,3.1,0,0,0,0-4.381Z" transform="translate(0.005 0.01)" fill="#b1976b"/></svg>