<svg xmlns="http://www.w3.org/2000/svg" width="25" height="25" viewBox="0 0 25 25"><path d="M24.335,7.01,22.084,9.261a.586.586,0,0,1-.83,0l-5.42-5.42a.586.586,0,0,1,0-.83L18.085.76A2.349,2.349,0,0,1,21.4.76l2.935,2.935A2.34,2.34,0,0,1,24.335,7.01ZM13.9,4.945,1.077,17.767.042,23.7A1.173,1.173,0,0,0,1.4,25.058l5.933-1.04L20.155,11.195a.586.586,0,0,0,0-.83l-5.42-5.42a.592.592,0,0,0-.835,0ZM6.082,16.669a.681.681,0,0,1,0-.967l7.52-7.52a.684.684,0,1,1,.967.967l-7.52,7.52a.681.681,0,0,1-.967,0ZM4.32,20.775H6.663v1.773l-3.15.552L2,21.581l.552-3.15H4.32Z" transform="translate(-0.024 -0.075)" fill="#192657"/></svg>