<svg xmlns="http://www.w3.org/2000/svg" viewBox="0 0 64 64"><g data-name="Layer 27"><path d="M16.28 41a1 1 0 0 0-.85.28l-6 6a1 1 0 0 0 0 1.41l6.65 6.65a1 1 0 0 0 1.42 0l4.06-4.06a1 1 0 0 0 .17-1.19L17 41.52a1 1 0 0 0-.72-.52Zm.54 12.2L11.58 48l4.33-4.32 3.73 6.74Z"/><path d="M58.69 10.64a1 1 0 0 0-.24-.94l-6.63-6.62a1 1 0 0 0-1.41 0L20.25 33.23l-.9-.89a1 1 0 0 0-1.41 0L5.16 45.11a4.84 4.84 0 0 0-.1 6.81l7.81 7.82a4.85 4.85 0 0 0 6.81-.11l7-7A1 1 0 0 0 27 52l.63-8.49 2.76 2.75a1 1 0 0 0 1 .25l3-.92a1 1 0 0 0 .7-1l-.2-2.59c3.66-1.15 3.25-.41 3-4.27 3.65-1.15 3.23-.42 2.95-4.26 3.66-1.15 3.24-.42 3-4.28 3.65-1.15 3.22-.43 2.95-4.27 3.67-1.15 3.24-.42 3-4.28 3.64-1.17 3.23-.43 3-4.27 3.65-1.17 3.22-.44 3-4.29l2.21-.72a1 1 0 0 0 .69-.72Zm-33.64 40.8-6.79 6.78a2.83 2.83 0 0 1-4 .1L6.47 50.5a2.62 2.62 0 0 1-.77-1.94 2.92 2.92 0 0 1 .87-2l12.07-12.1 7.14 7.13Zm29.2-41a1 1 0 0 0-.71 1l.18 2.5c-3.63 1.17-3.22.43-2.95 4.28-3.65 1.17-3.22.43-3 4.28-3.67 1.15-3.24.42-3 4.28-3.66 1.15-3.22.43-3 4.27-3.66 1.15-3.25.41-3 4.27-3.65 1.15-3.22.42-2.94 4.26-3.66 1.15-3.25.42-3 4.27l-1.64.51-9.73-9.72L51.12 5.2l4.73 4.73Z"/></g></svg>