<svg xmlns="http://www.w3.org/2000/svg" width="25" height="25.001" viewBox="0 0 25 25.001"><path d="M24.419,19.32,18.7,13.6a3.625,3.625,0,0,0-4.17-.679l-5.2-5.2V4.687L3.077,0-.048,3.125,4.64,9.374H7.672l5.2,5.2a3.633,3.633,0,0,0,.679,4.17l5.717,5.717a1.815,1.815,0,0,0,2.573,0l2.573-2.573a1.824,1.824,0,0,0,0-2.573Zm-8.271-8.334A5.137,5.137,0,0,1,19.8,12.5l.947.947a6.911,6.911,0,0,0,2.139-1.44,7.022,7.022,0,0,0,1.85-6.674.584.584,0,0,0-.981-.269L20.127,8.7l-3.315-.552L16.26,4.829,19.893,1.2A.589.589,0,0,0,19.614.21a7.033,7.033,0,0,0-6.67,1.85,6.919,6.919,0,0,0-2.012,5.058l4.009,4.009a5.319,5.319,0,0,1,1.206-.142Zm-5.073,4L8.306,12.221.865,19.667a3.124,3.124,0,1,0,4.419,4.419l6.035-6.035a5.243,5.243,0,0,1-.244-3.061Zm-8,8.056a1.172,1.172,0,1,1,1.172-1.172A1.175,1.175,0,0,1,3.077,23.046Z" transform="translate(0.05)" fill="#192657"/></svg>