<svg width="601" height="93" fill="none" xmlns="http://www.w3.org/2000/svg"><path d="M54.585 47.8c-1.1 2.7-.6 5.4 1.2 8 6.9 10.1 34 17.1 67 17.7 21.2 1.1 42.1-1.1 58.9-6.2 8.1-2.7 13.1-5.3 15.9-6.9.3-.2 1.1-.8.8-1.2-.2-.3-.6-.2-.9 0l-.5.2c-12.6 6.2-33.5 9-57.4 8.1-6.8-.3-13.2-.9-19.2-1.8-2.7-.5-5.4-.9-7.7-1.4-15.2-3.2-25.4-8.4-28.1-14.3-1.1-2.1-.9-4.4.2-6.5 5.1-9.6 26.9-17.4 52.1-18.8 5.1-.5 10.5-.6 16.4-.5.5 0 .5-.2.5-.3 0-.1-.2-.2-.3-.3l-6.6-.3c-43.3-1.1-87.3 10.5-92.3 24.5Zm50.2-41.4C45.285 7.6 2.285 21.9.085 41c-1.5 12.9 17 25.4 50.6 34 7.8 2 17.4 4.5 35.9 5.4 1.1 0 1.2-.5 1.2-.8 0-.3-.5-.6-1.4-.8-13.7-2.1-19.7-4.1-19.7-4.1-22.1-6.2-34.1-15.5-33.1-25.7 1.7-14.4 30.9-30.3 83.8-32.6 49.7-2.3 83.5 9.6 91.2 22.4 2 3.3 2.4 6.8 1.2 10.4-2.6 7.4-11.7 14.4-25.2 19.5-9.6 3.6-25.8 7.2-41.5 9.2-.6.2-.9.3-1.1.5v.3c0 .3.3.5.9.5 15.8-1.5 34-5.4 44-9.3 14.6-5.6 24.2-13.2 27.2-21.3 1.5-4.2 1.2-8.3-1.1-12.2-8.3-15.2-49.3-31.2-108.2-30Zm195-6.1h-46.6c-4.7 0-10.8 3.2-12.5 8.3l-6.8 21.2c-.5 2.3.2 3.8 1.4 5.3 2.4 3.6 7.7 5.1 16.7 5.1h33.5c.2 0 .3-.2.3-.2l4.5-8.7v-.5c0-.2-.2-.2-.3-.2h-39.3c.3-1.1 4.7-14.9 4.7-14.9s1.4-4.4 1.5-4.5c1.4-1.2 3.2-1.8 5.7-1.7h32.8c.2 0 .3-.2.3-.2l4.7-8.7V.1c-.3.2-.4.2-.6.2Zm57 6.1c-.2-.5-2.3-3.8-8.7-5.3-2.6-.6-4.4-.6-6.5-.8h-27.3c-6.3 0-11.4 3.5-13.4 8.9l-6.5 20.6v.2c-.2 1.5.3 3.2 1.4 4.8 2.6 3.8 7.8 5.4 16.5 5.4h19.8c10.7 0 16.2-2.4 18-7.7l7.1-22.1c-.1-.1.5-2.3-.4-4Zm-22 22.7c-.2.5-1.5 1.7-5.7 1.7h-18.6c.3-.9 4.7-14.6 4.7-14.6l1.5-4.8c.2-.3 1.4-1.5 5.6-1.5l15.3-.2h3.3c-1.1 3.6-5.9 18.8-6.1 19.4Zm142.9-23.6c-2.3-3-7.8-5.1-14-5.1l-27-.2c-5.1 0-11.6 1.4-13.7 7.5v.2c-.5 1.1-6.6 21-6.9 21.9l-3.2 9.9v.3c.2.2.2.2.3.2h15.5c.2 0 .3-.2.5-.3 0 0 4.8-15 5-15.5h32.3c5.6 0 8.3-1.4 9.3-4.5l.3-.9 2.7-8.6c.4-1.6.1-3.4-1.1-4.9Zm-15.3 5.1-.8 2.4c-.6 1.7-1.8 1.7-4.1 1.7H437.085c.3-.8 1.1-2.9 1.1-2.9l.2-.6c.2-.6.8-1.5 2.7-1.5h19.1c1.7 0 2.1.5 2.1.6.1 0 .1.2.1.3Zm20.6-2.1s0 .2-.2.2c0 .2-6 18.9-6.2 19.5-.9 2.3-.6 4.4.8 6.2 2.6 3.8 9 5.7 13.7 5.7h36.5c.2 0 .3-.2.3-.2l4.4-8.4V31c0-.2-.2-.2-.3-.2l-18.6.2h-20.9c.3-.8 2-6.2 2.1-6.6h28.7c.2 0 .3-.2.5-.3l2.7-8.6V15c0-.2-.2-.2-.3-.2h-28.2c.3-.8.8-2.1.8-2.1l.2-.5c.6-2 3.6-2 4.5-2h33.7c.2 0 .3-.2.3-.2l5.1-9.3V.2c0-.2-.2-.2-.3-.2h-43c-5.3.1-12.7.6-16.3 8.5Zm-65.2-2.1c-.2-.5-2.3-3.8-8.7-5.3-2.6-.6-4.4-.6-6.5-.8h-27.3c-6.3 0-11.4 3.5-13.4 8.9l-6.5 20.6v.2c-.3 1.5.3 3.2 1.4 4.8 2.6 3.8 7.8 5.4 16.5 5.4h19.8c10.7 0 16.2-2.4 18-7.7l7.1-22.1c-.1-.1.5-2.3-.4-4Zm-22 22.7c-.2.5-1.5 1.7-5.7 1.7h-18.6c.3-.9 4.7-14.6 4.7-14.6l1.5-4.8c.2-.3 1.4-1.5 5.6-1.5l15.3-.2h3.3c-1.2 3.9-5.9 18.8-6.1 19.4Zm202.9-23.7c-2.3-3-7.8-5.1-14-5.1h-38.2c-.2 0-.3.2-.5.3l-9.2 29-3.2 9.9v.3c0 .2.2.2.3.2h15.5c.2 0 .3-.2.5-.3 0 0 4.8-14.9 5-15.5h15.8c.3 1.1 1.7 4.4 6.2 15.6 0 .2.2.3.3.3h14.9c.2 0 .3 0 .3-.2 0 0 .2-.2.2-.3v-.2s-4.4-14.4-4.7-15.3c5.1-.2 7.8-1.4 8.9-4.4l.3-.8 2.7-8.7c.2-.6.3-1.1.3-1.7-.2-.9-.7-2.1-1.4-3.1Zm-15.4 5.1-.8 2.4c-.5 1.7-1.8 1.7-4.1 1.7H557.985c.3-.8.9-2.9.9-2.9l.2-.6c.2-.6.8-1.5 2.7-1.5h19.1c1.7 0 2.1.5 2.1.6.3 0 .3.1.3.3Zm-35.3 41.3c1.8 0 3.2 1.5 3.2 3.3 0 1.8-1.4 3.3-3.2 3.3-1.8 0-3.2-1.5-3.2-3.3.1-1.9 1.4-3.3 3.2-3.3Zm0 .5c-1.5 0-2.6 1.2-2.6 2.7 0 1.5 1.2 2.7 2.6 2.7 1.5 0 2.6-1.2 2.6-2.7.1-1.5-1.1-2.7-2.6-2.7Zm-.6 4.6h-.6v-3.6c.3 0 .6-.2 1.1-.2.6 0 .9.2 1.2.3.2.2.3.5.3.8 0 .5-.3.8-.8.9.3 0 .6.3.6.9.2.6.2.8.3.9h-.6c-.2-.2-.2-.5-.3-.9-.2-.5-.3-.6-.8-.6h-.5v1.5h.1Zm0-2.1h.5c.5 0 .9-.2.9-.6 0-.3-.3-.6-.9-.6h-.5v1.2Zm-225.6-2.5h-36.2c-.2 0-.3.2-.5.3l-2.7 8.4v.5c.2.2.2.2.3.2h18c-.3 1.1-9.5 30-9.5 30v.2c0 .2 0 .2.2.3.2.1.2.2.3.2h15.3c.2 0 .3-.2.5-.3 0 0 9.3-29.7 9.5-30.2h17.1c.2 0 .3-.2.5-.3l2.6-8.4V53c0-.2 0-.2-.2-.3-.2-.1-.2-.2-.3-.2h-14.9v-.2Zm20.3 0c-.2 0-.3.2-.5.3l-12.3 39.1v.5c.2.2.2.2.3.2h15.3c.2 0 .3-.2.5-.3l12.3-39.1v-.5c-.2-.2-.2-.2-.3-.2h-15.3Zm73.1 5.2c-2.3-3-7.8-5.1-14-5.1h-38.2c-.2 0-.3.2-.5.3l-9.2 29-3.2 9.9v.3c.2.2.2.2.3.2h15.5c.2 0 .3-.2.5-.3 0 0 4.8-14.9 5-15.5h15.8c.3 1.1 1.7 4.4 6.2 15.6 0 .2.2.3.3.3h14.9c.2 0 .3 0 .3-.2 0 0 .2-.2.2-.3v-.2s-4.4-14.4-4.7-15.3c5.1-.2 7.7-1.4 8.9-4.4l.3-.9 2.7-8.6c.2-.6.3-1.1.3-1.7-.2-1-.6-2-1.4-3.1Zm-27.9 18.6v-.3.3Zm12.4-13.5-.8 2.4c-.6 1.7-1.8 1.7-4.1 1.7H374.385c.3-.8 1.1-3 1.1-3l.2-.6c.2-.6.8-1.5 2.7-1.5h19.1c1.7 0 2.1.5 2.1.6.1.1.3.3.1.4Zm22.3-1.9-.2.2c0 .2-6 18.9-6.2 19.5-.9 2.3-.6 4.4.8 6.2 2.6 3.8 9 5.7 13.7 5.7h36.5c.2 0 .3-.2.3-.2l4.4-8.4v-.5c0-.2-.2-.2-.3-.2l-18.6.2h-20.9c.3-.8 2-6.2 2.1-6.6h28.7c.2 0 .3-.2.5-.3l2.7-8.6v-.5c-.2-.2-.2-.2-.3-.2h-28.2c.3-.8.8-2.1.8-2.1l.2-.5c.6-2 3.6-2 4.5-2h33.7c.2 0 .3-.2.3-.2l5.1-9.3v-.5c0-.2-.2-.2-.3-.2h-43c-5.5-.1-12.7.5-16.3 8.5Zm93.1 31.5c.3 0 6.8-.2 10.4-2.3 4.2-2.4 4.8-3.5 5.7-6.5l3.2-10.1s.9-2.3-.3-4.1c-1.1-1.7-3.5-2.4-6.9-2.4h-32c.3-.8 1.1-3.3 1.1-3.3 0-.2.6-2.4 3.5-2.4h36.5c.2 0 .3-.2.3-.2l4.4-8.4V52c0-.2-.2-.2-.3-.2l-42.8.2c-.6 0-13.2-.2-16.1 8.4l-2.7 8.4c-.2.5-1.2 4.1.5 5.4 1.5 1.2 3.3 1.7 6.5 1.7h31.6c-.3.9-2.3 7.2-2.3 7.2s-38.3-.2-38.3 0c-.2 0-.3.2-.3.2l-4.4 8.4v.5c0 .2.2.2.3.2l42.4-.2Z" fill="#001E61"/></svg>