<svg class="main-dav-logo" xmlns="http://www.w3.org/2000/svg" viewBox="0 0 136.86 68.61" style="enable-background:new 0 0 136.86 68.61" xml:space="preserve" aria-labelledby="title"><style>.st0{fill:#5d5c5a}.st1{fill:#b5bd00}</style><g id="Keeping_Our_Promise_To__x28_390_bottom_x29__-_FINAL"><path class="st0" d="M21.56 58.23h-.86v-6.66h.86v6.66zm1.18-3.39 2.64 3.39h-1.03l-2.58-3.39 2.4-3.27h1.01l-2.44 3.27zM26.24 51.57h3.92v.77H27.1v2.09h2.84v.77H27.1v2.26h3.07v.77h-3.93v-6.66zM31.52 51.57h3.92v.77h-3.06v2.09h2.84v.77h-2.84v2.26h3.07v.77h-3.93v-6.66zM36.79 51.57h2.41c1.43 0 1.93.62 1.93 1.64v.99c0 1.03-.5 1.65-1.93 1.65h-1.55v2.38h-.86v-6.66zm2.38.77h-1.52v2.74h1.52c.82 0 1.1-.23 1.1-.88v-.98c0-.66-.28-.88-1.1-.88zM43.28 58.23h-.86v-6.66h.86v6.66zM45.71 52.56v5.67h-.82v-6.66h1.18l2.9 5.7v-5.7h.82v6.66h-1.18l-2.9-5.67zM52.09 56.32c0 .85.25 1.23 1.39 1.23.35 0 .79-.03 1.25-.12v-2.26h.83v2.87c-.65.19-1.42.29-2.11.29-1.7 0-2.22-.73-2.22-1.96v-2.93c0-1.35.67-1.97 2.33-1.97.57 0 1.23.07 1.85.21l-.1.74c-.64-.11-1.24-.17-1.79-.17-1.1 0-1.43.33-1.43 1.23v2.84zM63.6 56.31c0 1.11-.69 2.02-2.41 2.02-1.72 0-2.41-.91-2.41-2.02v-2.82c0-1.11.69-2.02 2.41-2.02 1.72 0 2.41.91 2.41 2.02v2.82zm-3.96-.02c0 .82.5 1.28 1.55 1.28s1.55-.46 1.55-1.28v-2.78c0-.82-.5-1.28-1.55-1.28s-1.55.46-1.55 1.28v2.78zM69.7 51.57v4.79c0 1.09-.63 1.97-2.36 1.97s-2.36-.88-2.36-1.97v-4.79h.86v4.74c0 .82.45 1.25 1.5 1.25s1.5-.43 1.5-1.25v-4.74h.86zM73.69 55.82h-1.63v2.41h-.86v-6.66h2.54c1.43 0 1.93.62 1.93 1.64v.96c0 .79-.29 1.33-1.06 1.55l1.73 2.51h-.99l-1.66-2.41zm.02-3.48h-1.65v2.72h1.65c.82 0 1.1-.23 1.1-.88v-.96c0-.66-.28-.88-1.1-.88zM79.29 51.57h2.41c1.43 0 1.93.62 1.93 1.64v.99c0 1.03-.5 1.65-1.93 1.65h-1.55v2.38h-.86v-6.66zm2.38.77h-1.52v2.74h1.52c.82 0 1.1-.23 1.1-.88v-.98c0-.66-.28-.88-1.1-.88zM87.34 55.82h-1.63v2.41h-.86v-6.66h2.54c1.43 0 1.93.62 1.93 1.64v.96c0 .79-.29 1.33-1.06 1.55l1.73 2.51H89l-1.66-2.41zm.02-3.48h-1.65v2.72h1.65c.82 0 1.1-.23 1.1-.88v-.96c0-.66-.28-.88-1.1-.88zM95.5 56.31c0 1.11-.69 2.02-2.41 2.02s-2.41-.91-2.41-2.02v-2.82c0-1.11.69-2.02 2.41-2.02s2.41.91 2.41 2.02v2.82zm-3.95-.02c0 .82.5 1.28 1.55 1.28s1.55-.46 1.55-1.28v-2.78c0-.82-.5-1.28-1.55-1.28s-1.55.46-1.55 1.28v2.78zM97.73 52.83l-.13 5.4h-.83l.23-6.66h1.09l1.92 5.15 1.92-5.15h1.09l.23 6.66h-.83l-.13-5.4-1.7 4.54h-1.16l-1.7-4.54zM105.61 58.23h-.86v-6.66h.86v6.66zM108.95 58.33c-.64 0-1.41-.12-1.98-.35l.14-.7c.61.19 1.25.29 1.86.29 1.07 0 1.29-.28 1.29-1.04 0-.9-.01-.98-1.38-1.29-1.61-.36-1.8-.67-1.8-2.05 0-1.16.48-1.72 2.13-1.72.58 0 1.27.08 1.8.22l-.07.73c-.53-.12-1.16-.19-1.71-.19-1.09 0-1.29.22-1.29.99 0 .92 0 .96 1.32 1.29 1.77.44 1.86.7 1.86 2 0 1.16-.34 1.82-2.17 1.82zM112.43 51.57h3.92v.77h-3.06v2.09h2.84v.77h-2.84v2.26h3.07v.77h-3.93v-6.66zM120.94 52.34h-1.99v-.77h4.84v.77h-1.99v5.89h-.86v-5.89zM129.54 56.31c0 1.11-.69 2.02-2.41 2.02-1.72 0-2.41-.91-2.41-2.02v-2.82c0-1.11.69-2.02 2.41-2.02 1.72 0 2.41.91 2.41 2.02v2.82zm-3.96-.02c0 .82.5 1.28 1.55 1.28s1.55-.46 1.55-1.28v-2.78c0-.82-.5-1.28-1.55-1.28s-1.55.46-1.55 1.28v2.78z"/><g><path class="st1" d="M27.33 68.61H25.5l-.42-1.53h-2.62l-.42 1.53H20.2l2.38-7.83h2.35l2.4 7.83zm-4.47-2.99h1.8l-.89-3.28-.91 3.28zM29.84 64.27l-.12 4.35h-1.7l.33-7.83h1.76l1.88 4.98 1.88-4.98h1.76l.33 7.83h-1.7l-.12-4.35-1.36 3.34h-1.57l-1.37-3.34zM37.08 68.61v-7.83H42v1.56h-3.16v1.43h2.91v1.56h-2.91v1.7H42v1.56h-4.92zM45.92 66.18h-1.03v2.43h-1.76v-7.83h3.25c1.9 0 2.61.75 2.61 2.22v.96c0 .97-.35 1.63-1.14 1.96l1.89 2.68h-2.09l-1.73-2.42zm1.3-3.01c0-.59-.22-.82-.94-.82h-1.4v2.3h1.4c.75 0 .94-.27.94-.86v-.62zM50.44 68.61v-7.83h1.76v7.83h-1.76zM55.02 66.05c0 .68.22 1.08 1.09 1.08.56 0 1.34-.07 2.02-.19l.25 1.54c-.78.16-1.48.25-2.27.25-1.97 0-2.85-.97-2.85-2.4v-3.27c0-1.42.88-2.4 2.85-2.4.79 0 1.49.08 2.27.25l-.25 1.54c-.68-.12-1.46-.19-2.02-.19-.87 0-1.09.4-1.09 1.08v2.71zM66.08 68.61h-1.83l-.42-1.53H61.2l-.42 1.53h-1.83l2.38-7.83h2.35l2.4 7.83zm-4.48-2.99h1.8l-.89-3.28-.91 3.28zM66.49 64.25l-.76-.43.67-1.32h-.56v-1.95h1.69v2.07l-1.04 1.63zM70.86 68.73c-.9 0-1.86-.2-2.53-.5l.29-1.36c.72.22 1.44.38 2.26.38.91 0 1.08-.18 1.08-.83 0-.71-.04-.79-1.32-1.07-1.89-.41-2.17-.79-2.17-2.48 0-1.56.55-2.19 2.7-2.19.68 0 1.5.07 2.37.26l-.18 1.48c-.89-.15-1.47-.22-2.17-.22-.79 0-.96.14-.96.72 0 .75.04.76 1.27 1.06 2.11.5 2.22.92 2.22 2.46 0 1.53-.5 2.29-2.86 2.29zM80.8 68.61h-2.51l-2.21-7.83h1.81l1.66 6.23 1.66-6.23H83l-2.2 7.83zM83.77 68.61v-7.83h4.92v1.56h-3.16v1.43h2.91v1.56h-2.91v1.7h3.16v1.56h-4.92zM93.3 62.35v6.26h-1.76v-6.26h-2.1v-1.56h5.97v1.56H93.3zM96.15 68.61v-7.83h4.92v1.56h-3.16v1.43h2.91v1.56h-2.91v1.7h3.16v1.56h-4.92zM104.87 66.18h-1.03v2.43h-1.76v-7.83h3.25c1.9 0 2.61.75 2.61 2.22v.96c0 .97-.35 1.63-1.14 1.96l1.89 2.68h-2.09l-1.73-2.42zm1.31-3.01c0-.59-.22-.82-.94-.82h-1.4v2.3h1.4c.75 0 .94-.27.94-.86v-.62zM116.27 68.61h-1.83l-.42-1.53h-2.62l-.42 1.53h-1.83l2.39-7.83h2.35l2.38 7.83zm-4.47-2.99h1.8l-.89-3.28-.91 3.28zM118.7 63.47v5.15h-1.68v-7.83h2.16l2.57 5.39v-5.39h1.68v7.83h-2.17l-2.56-5.15zM126.78 68.73c-.9 0-1.86-.2-2.53-.5l.29-1.36c.72.22 1.45.38 2.26.38.91 0 1.08-.18 1.08-.83 0-.71-.04-.79-1.32-1.07-1.89-.41-2.17-.79-2.17-2.48 0-1.56.55-2.19 2.7-2.19.68 0 1.5.07 2.37.26l-.18 1.48c-.89-.15-1.47-.22-2.17-.22-.79 0-.96.14-.96.72 0 .75.04.76 1.27 1.06 2.11.5 2.22.92 2.22 2.46.01 1.53-.49 2.29-2.86 2.29z"/></g><path class="st0" d="M0 46.99h17.62V0H0v46.99zM20.56 0v14.36h3.91v20.88h-3.91v11.75h14.68l8.81-8.81V8.81L35.24 0H20.56zM55.8 0l-8.81 8.81v38.18h16.8V0H55.8zm10.93 0v14.36h3.92v11.09h-3.92v9.79h3.92v11.75H88.1V25.87L78.68 0H66.73z"/><path class="st1" d="M99.23 0H81.76l17.1 46.99h17.47L99.23 0zm30.45 12.13V0h-13.21l-7.06 19.4 8.81 24.2 11.46-31.47z"/><g><path class="st0" d="M134.66 2.13v-.29c0-.35-.19-.55-.65-.55h-.81v2.07h.35v-.69h.42l.51.69h.42l-.55-.75c.25-.12.31-.28.31-.48zm-.36-.02c0 .15-.07.24-.3.24h-.45v-.73h.45c.21 0 .3.05.3.25v.24z"/><path class="st0" d="M133.91.22c-1.22 0-2.1.88-2.1 2.1 0 1.22.88 2.1 2.1 2.1 1.23 0 2.09-.86 2.09-2.1 0-1.23-.86-2.1-2.09-2.1zm0 3.83c-1.03 0-1.7-.68-1.7-1.73 0-1.05.67-1.72 1.7-1.72 1.17 0 1.69.87 1.69 1.72 0 .86-.52 1.73-1.69 1.73z"/></g></g></svg>