<svg xmlns="http://www.w3.org/2000/svg" width="429.976" height="68.677"><path d="M424.464 16.308a5.589 5.589 0 0 0-5.513 5.513 5.513 5.513 0 1 0 11.025 0 5.589 5.589 0 0 0-5.512-5.513Zm0 9.877a3.871 3.871 0 0 1-3.9-3.9v-.459a4.034 4.034 0 1 1 8.039-.689v.919a4.055 4.055 0 0 1-3.445 4.364c-.23-.459-.459-.23-.689-.23ZM182.372 50.531l2.986-6.661h6.2l9.188-21.131h-5.974l2.759-6.891h21.131l10.566 21.361 6.431-14.47h-6.2l2.985-6.891h20.9l-2.986 6.891h-5.972l-12.4 27.792h-14.7l-10.8-21.131-6.2 14.47h6.2l-3.214 6.661ZM168.361 22.739l2.986-6.661h21.131l-2.986 6.661h-6.2l-8.5 19.523c-1.608 3.675-5.972 8.958-17.916 8.958h-12.4c-4.134 0-14.241-2.067-10.106-11.255l7.58-17.227h-6.2l2.981-6.66h30.319l-2.986 6.661h-6.2l-6.431 14.7c-.919 1.838-2.3 7.12 4.823 7.12s8.5-3.445 9.417-5.513l7.12-16.308ZM256.558 22.739l2.989-6.891h30.319l-2.986 6.891h-6.431l-8.958 21.131h9.647l9.877-10.336h5.972l-7.35 17h-45.479l2.986-6.661h6.2l9.414-21.134Z" fill="#231f20"/><path d="M59.489 33.764 1.378 0l17.686 15.619h-.689a18.261 18.261 0 0 0-.23 36.52h2.3L2.067 68.677l57.422-34.913Zm-54.666.23a16.622 16.622 0 0 1 17-16.767c9.417.23 17 7.58 16.767 17a17.106 17.106 0 0 1-17 17A17.418 17.418 0 0 1 4.823 33.994Z" fill="#ed3336"/><path d="M27.792 27.103H11.943l-1.145 4.135h2.983l-2.067 5.971H9.876l-1.378 4.135h17.686c4.134 0 9.188-1.148 10.336-6.661.689-3.675-.459-7.809-8.728-7.58Zm-.23 7.809a5.132 5.132 0 0 1-4.134 2.3h-3.216l2.067-6.2h3.675c1.608.23 2.3 2.067 1.608 3.9ZM340.857 15.389h-14.93c-18.375 0-21.82 11.025-23.658 15.389-10.8 22.28 6.431 20.442 10.566 20.442h14.47c9.647 0 19.753-1.838 26.184-16.538 6.203-14.01 5.743-19.293-12.632-19.293Zm-3.675 14.47-3.675 8.5a8.7 8.7 0 0 1-8.728 5.972h-4.134c-2.3 0-5.513-2.3-3.445-7.35l4.134-9.647a9.329 9.329 0 0 1 7.12-5.283h5.053c6.2 0 5.053 4.823 3.675 7.809ZM411.601 15.848h-45.019l-2.986 6.661h6.2l-9.188 21.131h-6.2l-2.985 6.661h30.319l2.986-6.661h-6.205l2.756-6.891h19.064c10.8 0 12.863-5.972 14.011-8.728l1.378-3.216c3.216-7.35-1.378-8.958-4.134-8.958Zm-14.47 10.8c-1.148 2.527-2.067 3.675-4.823 3.675h-7.809l3.216-7.58h6.2c2.986 0 4.364 1.378 3.216 3.9ZM114.385 15.846H81.08l-2.756 6.891h6.2l-9.186 21.134h-6.2l-2.988 6.661h35.142c16.078 0 19.753-1.148 26.184-16.078 4.594-11.026 5.284-18.835-13.091-18.608Zm-3.446 14.014-3.675 8.5c-1.148 2.527-1.608 5.513-7.12 5.513h-7.12l9.188-21.131h5.053c6.2 0 4.823 4.134 3.675 7.12ZM425.382 22.05a1.536 1.536 0 0 0 1.608-1.378v-.23c0-1.378-.919-1.838-2.3-1.838h-2.3v5.972h1.148v-2.3h.689l1.378 2.527h1.378Zm-1.838-.689v-1.608h.919c.459 0 1.148 0 1.148.689s-.459.919-1.148.919Z" fill="#231f20"/></svg>