<svg width="300" height="378" viewBox="0 0 300 378" fill="none" xmlns="http://www.w3.org/2000/svg">
<mask id="mask0_232_71" style="mask-type:alpha" maskUnits="userSpaceOnUse" x="20" y="0" width="260" height="378">
<rect width="259.694" height="377.015" transform="matrix(-1 0 0 1 279.695 0)" fill="#D9D9D9"/>
</mask>
<g mask="url(#mask0_232_71)">
<path d="M1174.58 195.205C1174.58 172.009 1162.05 154.264 1140.2 146.488C1125.61 141.304 1109.35 141.304 1097.45 141.304C1087.45 141.304 1077.27 141.337 1067.47 142.667H820.165L820.364 143.697C811.953 142.069 802.479 141.304 791.807 141.304C762.22 141.304 742.773 147.651 730.206 158.95C719.402 147.552 703.379 141.304 683.1 141.304C680.108 141.304 675.52 141.304 670.168 142.035V91.5244H582.304V142.667H572.597V117.444H484.766V142.667H470.272V117.444H382.408V142.667H367.847V145.624C355.381 142.002 341.352 141.304 327.622 141.304H327.124C311.166 141.304 294.378 141.304 279.452 148.05V91.5244H162.865L148.903 139.875L134.209 91.5244H19.7168V310.748H279.485V307.492C288.394 310.516 298.866 312.111 311.067 312.111C317.25 312.111 322.802 311.612 327.755 310.748H408.904V303.869C424.728 312.111 443.477 312.111 452.52 312.111C470.106 312.111 489.121 309.851 502.585 298.22C519.54 312.077 544.04 312.111 554.845 312.111C563.953 312.111 573.428 311.512 582.337 309.319V310.748H745.931V304.235C757.932 309.585 773.124 312.111 791.841 312.111C809.493 312.111 829.706 310.914 845.729 302.008L846.095 301.809C847.026 301.277 847.823 300.679 848.688 300.114L850.616 310.781H1039.04L1040.54 302.241C1042.33 303.338 1044.13 304.268 1045.89 305.099C1060.75 311.978 1077.81 312.177 1094.39 312.177H1097.49C1113.28 312.177 1133.52 311.047 1149.91 302.341C1163.77 294.964 1180.3 279.478 1180.3 247.576C1180.3 235.214 1178.24 225.411 1174.61 217.602V195.304L1174.58 195.205ZM323.4 243.522L324.564 247.244L323.168 254.887C322.004 252.927 321.206 250.767 321.073 248.607C321.339 246.978 322.203 245.184 323.4 243.555V243.522Z" fill="#00498F"/>
<path d="M1166.46 217.137V195.205C1166.46 149.413 1118.09 149.413 1097.45 149.413C1085.58 149.413 1071.32 149.413 1058.42 152.935L1058.79 150.775H988.61L985.285 173.173L980.531 150.775H908.492L903.97 172.043L900.945 150.775H829.87L830.634 155.029C820.295 151.174 807.463 149.413 791.772 149.413C759.326 149.413 740.477 157.089 729.805 171.312C721.029 157.022 705.172 149.413 683.064 149.413C676.615 149.413 669.235 149.911 662.021 152.138V99.6328H590.414V150.775H564.45V125.553H492.843V150.775H462.125V125.553H390.518V150.775H375.957V157.488C362.792 150.476 345.638 149.413 327.62 149.413H327.121C311.962 149.346 296.072 149.413 282.741 155.461C278.984 157.155 275.028 159.548 271.338 162.904V99.6328H168.98L149.1 168.454L128.19 99.6328H27.8262V302.607H106.382L104.985 262.63L118.349 302.607H181.147L194.212 263.062L192.849 302.607H271.405V295.03C285.001 303.969 302.155 303.969 311.098 303.969C317.448 303.969 323.032 303.404 327.919 302.441V302.607H400.823V286.988C415.118 303.936 440.716 303.969 452.584 303.969C472.531 303.969 491.513 301.178 502.616 286.357C516.811 303.936 542.908 303.969 554.909 303.969C567.808 303.969 580.274 302.806 590.513 297.988V302.607H662.121H666.243H737.851V289.348C749.22 298.719 766.374 303.969 791.872 303.969C808.494 303.969 827.41 302.873 842.07 294.731C846.824 291.973 850.813 288.55 854.204 284.596L857.462 302.573H941.303L945.16 282.568L949.116 302.573H1032.29L1035.02 287.088C1038.91 291.441 1043.66 294.964 1049.38 297.622C1062.64 303.77 1078.07 303.936 1094.43 303.936C1094.96 303.936 1095.49 303.936 1096.02 303.936H1097.58C1116.07 303.936 1172.28 303.936 1172.28 247.444C1172.28 234.284 1169.79 224.448 1165.43 217.071H1166.6L1166.46 217.137Z" fill="white"/>
<path d="M89.5617 286.889H44.084V116.381H116.19L148.703 223.451H150.298L181.215 116.381H255.117V286.889H209.639L214.193 156.192H212.598L169.38 286.889H130.053L86.4035 156.192H85.0405L89.5949 286.889H89.5617Z" fill="#00498F"/>
</g>
<rect x="270.834" y="91.657" width="9.16569" height="218.754" fill="#004990"/>
</svg>
