<svg xmlns="http://www.w3.org/2000/svg" width="435.878" height="56.092"><path d="M48.274 34.026h11.642l2.43-6.679H50.705l.978-2.688h13.875l2.894-7.948H43.729l.012-.032h-3.175l-2.9 7.97h1.862L32.194 44.8h26.6l2.893-7.948h-14.44l1.028-2.826M91.608 16.711l-5.07 13.928a22.592 22.592 0 0 0-.316-3.609l-1.787-10.319h-11.07l.012-.032h-3.175l-2.9 7.97h1.862L61.83 44.8h10.192l5.119-14.065a27.375 27.375 0 0 0 .369 3.609L79.335 44.8H91.58l10.223-28.088H91.608M111.753 34.026h11.642l2.431-6.679h-11.642l.978-2.688h13.873l2.893-7.948h-24.7l.012-.032h-3.175l-2.9 7.97h1.851L95.682 44.8h26.586l2.893-7.948h-14.436l1.028-2.826M151.935 26.393c-.814 2.234-2.34 2.965-5.217 2.965h-3.493l2.161-5.938h4.137c2.191 0 3.157.921 2.411 2.973Zm3.184 7.768c3.683-1.28 6.885-3.566 8.45-7.863 2.31-6.35.04-9.588-9.741-9.588h-16.965l.012-.032H133.7l-2.9 7.97h1.979l-7.334 20.151h12.159l3.409-9.366h1.864c1.576 0 2.127.55 2.17 1.831l.327 7.535h12.3l-.4-7.08c-.1-2.053-.941-3.059-2.156-3.557M182.375 29.083l-.344 4.668h-4.888l3.1-4.668c1.139-1.737 2.629-4.287 2.629-4.287s-.373 2.55-.497 4.287Zm-3.179-12.372.012-.032h-3.173l-2.754 7.566-15.017 20.554h11.6l2.628-4.022h9.082l-.258 4.022h12.805l-.062-28.088h-14.863M218.714 16.711h-12.161l-10.218 28.088h23.746l2.9-7.948h-11.599l7.332-20.14M33.021 34.505l2.357-6.476h-3.175v.011H18.935l-2.346 6.445h3.768l-1.013 2.784h-3.3c-4.149 0-4.2-1.779-2.47-6.53 1.679-4.615 3.348-6.117 7.867-6.117h11.451l2.877-7.905h-12.52c-11.461 0-18.587 4.751-21.962 14.023-3.358 9.228-.188 14.065 10.015 14.065h16.392l3.749-10.3h1.578M262.494 16.456h-27.812l-2.888 7.927h7.971l-7.306 20.066h11.876l7.3-20.066h7.971l2.885-7.927M265.307 16.456l-10.188 27.993h11.873l10.19-27.993h-11.875M297.926 26.105c-.811 2.232-2.307 2.964-5.12 2.964h-3.418l2.153-5.917h4.053c2.141.004 3.077.915 2.332 2.953Zm3.059 7.737a12.731 12.731 0 0 0 8.305-7.822c2.305-6.329.118-9.567-9.438-9.567h-17.748v.007h-2.276l-2.9 7.97h2.275l-7.284 20.016h11.872l3.4-9.335h1.821c1.544 0 2.073.551 2.117 1.831l.262 7.5h12.025l-.354-7.049c-.07-2.053-.89-3.058-2.073-3.556M338.392 24.384l2.885-7.927h-25.442v.007h-2.14l-2.9 7.97h2.137l-7.288 20.016h25.981l2.883-7.917h-14.107l1.029-2.826h11.377l2.417-6.646h-11.377l.975-2.678h13.57M420.722 45.264l-35.987 10.827-35.98-10.827V-.001l35.98 10.827L420.718-.001v45.265" fill="#c4122e" fill-rule="evenodd"/><path d="M402.73 44.28h-9.995v-9.747l9.991 9.747m-12.143 0h-17.127c-7.916-.19-15.706-5.577-15.706-14.267 0-8.53 7.789-14.075 15.706-14.266l8.255 8.044h-8.255a6.227 6.227 0 0 0 0 12.446h7.853v-2.391h-7.292a3.842 3.842 0 1 1 0-7.663h16.57v18.1M402.73 41.5l-9.995-9.75v-4.868l9.991 9.746v4.869m0-7.651-9.991-9.748-8.573-8.35h28.554v8.35h-9.991v9.748m-13.166-10.055h-5l-8.255-8.044h5l8.255 8.044" fill="#fff"/><path d="M402.73 44.28h-9.995v-9.747l9.991 9.747m-12.143 0h-17.127c-7.916-.19-15.706-5.577-15.706-14.267 0-8.53 7.789-14.075 15.706-14.266l8.255 8.044h-8.255a6.227 6.227 0 0 0 0 12.446h7.853v-2.391h-7.292a3.842 3.842 0 1 1 0-7.663h16.57v18.1M402.73 41.5l-9.995-9.75v-4.868l9.991 9.746v4.869m0-7.651-9.991-9.748-8.573-8.35h28.554v8.35h-9.991v9.748m-13.166-10.055h-5l-8.255-8.044h5l8.255 8.044" fill="#fff"/><path d="M427.298 20.151h1.376v-3.446h1.333v-.958h-4.039v.958h1.33v3.446M430.459 20.151h1.21v-1.959c0-.452-.021-1-.021-1s.155.572.275.979l.67 1.982h1.072l.67-1.982c.12-.4.272-.979.272-.979s-.032.593-.032 1v1.959h1.3v-4.4h-1.74l-.758 2.411c-.109.32-.208.794-.208.794s-.113-.473-.212-.794l-.758-2.411h-1.739v4.4" fill="#c4122e" fill-rule="evenodd"/></svg>