<svg xmlns="http://www.w3.org/2000/svg" width="411.13" height="75.958"><g fill="#f6d33c"><path d="M78.362 17.277c-10.867-2.055-23.183 5.598-26.919 17.036-4.885 15 2.885 22.443 13.742 24.5C76.063 60.875 88.4 53.222 92.1 41.769c5-15.455-2.874-22.438-13.742-24.492ZM72.71 50.806a4.662 4.662 0 0 1-2.5 2.885c-2.1.937-6.386.234-5.428-3.885l6.078-24.343a4.715 4.715 0 0 1 2.512-2.885c2.1-.926 6.386-.224 5.439 3.9l-6.1 24.332m-45.9-13.454-3.362 13.45a4.694 4.694 0 0 1-2.5 2.885c-2.108.937-6.4.234-5.428-3.885l5.79-22.725c.49-3.044 5.13-6.067 14.263-1.437l2.778-4.385C26.281 13.977 6.706 19.513 1.725 34.313-3 48.389 2.6 57.66 11.081 57.671h27.675l4.992-20.32H26.6m101.46-20.074c-10.868-2.054-23.183 5.6-26.919 17.041-4.886 15 2.874 22.438 13.742 24.5s23.215-5.6 26.919-17.052c5-15.455-2.874-22.438-13.742-24.492Zm-5.652 33.529a4.662 4.662 0 0 1-2.5 2.885c-2.1.937-6.386.234-5.428-3.885l6.078-24.343a4.715 4.715 0 0 1 2.512-2.885c2.1-.937 6.386-.234 5.439 3.885l-6.1 24.343m46.11 7.153c9.92 0 19.021-4.918 22.725-16.371 5-15.466-2.874-22.959-13.742-22.9h-22.587l-9.622 39.309 23.225-.043Zm-2.077-4.446-3.481-.032 7.483-30.229 3.491-.043c2.065-.053 4.4 1.022 3.694 4l-5.9 23.162a4.492 4.492 0 0 1-2.469 2.757 6.578 6.578 0 0 1-2.821.383m214.726-7.368s3.129-.149 3.566 1.905l2.1 9.92H404.9l-3-14.21c12.219-6.1 13.816-25.131-4.471-25.056h-26.077l-9.622 39.3 16.711-.021m0-.011 8.43-34.721 2.661-.043c2.065-.053 4.4 1.022 3.7 4L391 37.064a4.47 4.47 0 0 1-2.48 2.757 29.142 29.142 0 0 1-5.8.362m-108.836-21.5-11.39 14.006-4.013-14.008h-18.637l6.472 22.565-4.2 16.711h18.638l4.2-16.711 18.563-22.565h-9.633m13.028.011H318.9l-1.586 6.312h-14.681l-2.384 9.952h10.5l-1.767 6.493H298.6l-2.565 10.335h14.827l-1.48 6.206H277.3l9.612-39.3m65.663-.043h-15.4l-23.939 39.33h6.964l.032.17 3.949-6.482 14.636.011.628 6.461h16.786l-3.651-39.49Zm-24.236 26.208-.032.075v-.075h.032l8.526-13.986 1.3 13.986h-9.824M190.562 73.513h-.032c7.238-.649 16.85-11.879 23.311-18.265s16.083-12.34 19.059-14.416l1.48 2.459c-2.97 2.065-12.581 8.015-19.053 14.4s-16.08 17.622-23.307 18.267l-1.458-2.445m25.79-56.63c-.575-1.511-.947-3.96-.373-8.26l-15.614 8.547 3.811 6.312 12.177-6.6m-1.575 11.208-9.388-1.618a16.322 16.322 0 0 1 .234 6.472 490.69 490.69 0 0 0 9.154-4.854m-5.748-3.928 8.334 1.437a28.922 28.922 0 0 1 .479-6.216l-8.813 4.779m5.524 26.578c6.035-5.546 14.093-10.559 16.722-12.39-2.278-3.651-1.916-3.555-3.449-5.886a14.265 14.265 0 0 1-3.127 3.759c-1.426 1.128-1.256 1.575-2.906-.149a17.1 17.1 0 0 1-3.768-6.44s-7.408 3.63-11.421 5.918l7.951 15.189m-10.391-13.592-.021.021a87.764 87.764 0 0 0-4.322 9.495c-3.151 7.919-3.119 10.91-8.09 16.711-.958 1.118-2.054 2.757-3.215 3.928-1.181 1.192-2.1 4.226 1.331 3.587 6.876-1.267 16.424-11.9 22.6-18.106l-8.281-15.636"/><path d="M275.755 0c-12.3 1.662-12.27 1.63-37.593.662-26.748-.107-18.637 17.562-17.147 18.073-.585 3.981-.969 7.717.2 10.506-.064-.16 2.267 5.705 3.928 2.448a17.289 17.289 0 0 0 1.511-3.4c.82-2.086.6-4.066 2.459-2.1 1.905 1.99 2.438.373 2.523-1.543.075-1.341-.373-4.353 1.724-2.118 1.618 1.735 2.885-1.309 2.789-4.609-.128-4.194.979-1.075 4.886-1.735 7.781-1.309 3.246-2.3 3.449-2.2-1.586-.724-1.554-1.181.99-1.16a14.537 14.537 0 0 0 2.693-.287c.713-.224 3.885-1.671 1.511-2.108a4.8 4.8 0 0 1-2.235-.841c-1.331-1.224-.351-1.437 2.98-1.064 17.137 2.587 24.162-2.544 25.195-6.9.138-.6.553-1.682.138-1.629Zm-51.143 17.543c-.575-2.363.447-1.181-1.331-1.873-2.288-.9-1.831-1.948-.947-1.692a8.035 8.035 0 0 0 2.736.309c.639-.021 1.043.192 1.022.766a8.983 8.983 0 0 0 .255 3.161c.308.926-1.479.415-1.735-.671Zm12.965-11.4c-1.213.82-1.735-.106-2.778 1.245a2.534 2.534 0 0 1-2.682 1.15c-1.416-.128-1.107.49-2.022 1-.873.511-2.288.255-3.427-.053-.745-.2-1.937-.713.053-1.011 1.434-.212 1.713-.127 2.334-1.192.511-.873.83-1.575 2.129-1.469 1.277.106 1.7.032 2.469-.734a2.069 2.069 0 0 1 1.969-.607 3.449 3.449 0 0 0 1.32.181c1.6-.213 2.427.319.639 1.49"/></g></svg>