<svg xmlns="http://www.w3.org/2000/svg" width="50" height="44.445" viewBox="0 0 50 44.445"><path d="M49.6,16.835l-1.964-1.964a1.389,1.389,0,0,0-1.964,0l-.982.982-2.509-2.509A5.532,5.532,0,0,0,40.758,8L36.83,4.068a13.89,13.89,0,0,0-19.642,0L25.044,8V9.623a5.552,5.552,0,0,0,1.628,3.928l4.266,4.266a5.532,5.532,0,0,0,5.348,1.419l2.509,2.509-.982.982a1.389,1.389,0,0,0,0,1.964l1.964,1.964a1.389,1.389,0,0,0,1.964,0L49.6,18.8A1.389,1.389,0,0,0,49.6,16.835ZM24.707,15.516a8.424,8.424,0,0,1-.855-1.037L1.708,35.153A5.368,5.368,0,1,0,9.295,42.74L29.966,20.6a8.44,8.44,0,0,1-.993-.817l-4.266-4.266Z" transform="translate(-0.003)" fill="#b1976b"/></svg>