<svg width="601" height="126" fill="none" xmlns="http://www.w3.org/2000/svg"><path d="m236.347 106.7 2-6.7c2-7.1 6.6-9.6 13.3-9.6 2.3 0 5.9.7 7.1 1.5l2.8-9.5 5.2-1.3-9.8 34.3h-4.4v-1.9c-3.1 1.5-5.8 2.3-9.1 2.3-6.9 0-8.6-4.2-7.1-9.1Zm21.2-11c-1.4-.9-4-1.4-5.7-1.4-4.2 0-7.3 1.2-8.7 6.1l-1.7 5.9c-1.1 3.7-.2 5.6 3.3 5.6 2.6 0 6.1-.8 8.8-2.3l4-13.9Zm27.5-5.3c-4.1 0-7.7 1.8-9.5 3l.2-2.5h-4.3l-7 24.4h4.9l5.1-17.8c3-1.8 6.4-2.5 9.4-2.7l1.2-4.4Zm3 25h-4.9l7-24.4h4.9l-7 24.4Zm8.4-29h-4.9l1.4-4.9h4.9l-1.4 4.9Zm27 4.5h-5.2l-9.4 15c-1 1.6-1.9 3.1-3.3 5.2-.1-2.1-.1-3.7-.2-5.2l-.7-15h-5l2.1 24.4h5.7l16-24.4Zm1.8 24.5h-4.9l7-24.4h4.9l-7 24.4Zm8.4-29h-4.9l1.4-4.9h4.9l-1.4 4.9Zm25.7 11.5c1.3-4.5-.4-7.5-6.3-7.5-2.8 0-6 1-8.9 2.4v-1.9h-4.3l-7 24.4h4.9l5.3-18.7c3.1-1.5 6.3-2.3 8.7-2.3 3.2 0 3.3 1.6 2.5 4.5l-4.7 16.5h4.9l4.9-17.4Zm3.5 8.3 1.8-6.2c2-7 6.5-9.6 13-9.6 2.5 0 5.8.7 7.5 2.2l.9-1.6h4.3l-7.4 25.7c-1.8 6-5 8.6-13.7 8.6-2.2 0-5.1-.3-6.8-.7l1.1-3.8c1.7.4 4.2.6 5.9.6 5.5 0 7.6-1.1 8.7-5.3l.7-2.4c-2.6 1.2-5.8 1.9-8.9 1.9-6.9 0-8.6-4.2-7.1-9.4Zm21-10.1c-1-1.1-3.7-1.8-6.6-1.8-3.3 0-6.3 1.3-7.8 6.2l-1.6 5.4c-1.2 3.9-.4 5.8 3.5 5.8 2.8 0 5.7-.7 8.4-1.8l4.1-13.8Zm43.6 8.4h-17.6l-.3 1c-1.2 3.9-.6 6.5 5.8 6.5 2.1 0 5-.2 7.8-1.1l-1.1 3.7c-2.5.9-5.2 1.2-7.5 1.2-8.6 0-11.8-3.7-9.6-11.4l.8-2.7c2.4-8.1 7.5-11.2 13.9-11.2 7 0 10.8 3.4 8.3 12l-.5 2Zm-3.8-3.5.1-.3c1-3.6.2-6.5-4.6-6.5-4.5 0-7.2 2.9-8.2 6.5l-.1.3h12.8Zm47.2-3.6c1.3-4.6-.3-7-5.8-7-2.3 0-5.9 1.1-9.3 2.8-.6-1.9-2.6-2.8-6-2.8-2.5 0-5.5 1-8.2 2.4v-1.9h-4.3l-7 24.4h4.9l5.3-18.7c3.1-1.5 5.5-2.3 7.4-2.3 2.8 0 3.3 1.4 2.5 4.2l-4.8 16.7h4.9l5.1-17.9.2-.8c3-1.5 5.5-2.3 7.5-2.3 2.8 0 3.3 1.4 2.4 4.2l-4.8 16.7h4.9l5.1-17.7Zm27 7.4c-2 7.1-6.9 11-14.3 11-7.3 0-10.8-4.2-8.8-11.3l.9-3.1c2-7.1 6.9-11 14.2-11 7.4 0 10.9 4.2 8.8 11.3l-.8 3.1Zm-4-3.2c1.5-5.3-.5-7.3-4.6-7.3s-7.2 2-8.7 7.3l-.9 3.1c-1.5 5.3.5 7.3 4.5 7.3 4.1 0 7.3-2 8.8-7.3l.9-3.1Zm28.1-10.7h-7l1.8-6.4-5.2 1.3-1.4 5h-4.3l-1.2 3.9h4.3l-4.3 14.9c-1.1 3.9.8 6.1 5.1 6.1 1.6 0 3.8-.3 5.2-1l1.1-3.7c-1.3.5-3.1.7-4.6.7-2.1 0-2.3-1-1.7-3.3l3.9-13.8h7l1.3-3.7Zm3.4 24.5h-4.9l7-24.4h4.9l-7 24.4Zm8.3-29h-4.9l1.4-4.9h4.9l-1.4 4.9Zm24.1 18.4c-2 7.1-6.9 11-14.3 11-7.3 0-10.8-4.2-8.8-11.3l.9-3.1c2-7.1 6.9-11 14.2-11 7.4 0 10.9 4.2 8.8 11.3l-.8 3.1Zm-3.9-3.2c1.5-5.3-.5-7.3-4.6-7.3s-7.2 2-8.7 7.3l-.9 3.1c-1.5 5.3.5 7.3 4.5 7.3 4.1 0 7.3-2 8.8-7.3l.9-3.1Zm33.6-3.7c1.3-4.5-.4-7.5-6.3-7.5-2.8 0-6 1-8.9 2.4v-1.9h-4.3l-7 24.4h4.9l5.3-18.7c3.1-1.5 6.3-2.3 8.7-2.3 3.2 0 3.3 1.6 2.5 4.5l-4.7 16.5h4.9l4.9-17.4Z" fill="#999"/><path d="m326.247 26.1-12.2 43.4h-20l11.1-39.3c.9-3.4 1.6-6.1.2-7.4-1.2-1.1-2.9-1.3-5.1-1.3l-10.4.3-13.7 47.7h-20l17.4-60.8c2.4-.1 20.2-1 37.9-1.4 6.8-.2 11.5 1.4 13.9 4.5 2.4 3.2 2.7 8 .9 14.3Zm47.7 14.2s14.5-9.9 24.7-31.7h-21.2c-9.7 19.9-22 26.4-22 26.4l7.7-26.4h-20l-17.5 60.9h20l8.6-30.4 11.2 30.4h20.8l-12.3-29.2Zm201.5 0s14.5-9.9 24.7-31.7h-21.2c-9.7 19.9-22 26.4-22 26.4l7.7-26.4h-20l-17.5 60.9h20l8.6-30.4 11.2 30.4h20.8l-12.3-29.2Zm-119.1-25.6c3.4 4.5 3.9 11.2 1.4 19.8l-2.6 8.9c-5.2 18.3-18.4 27.5-39.2 27.5-10.7 0-18-2.5-21.8-7.4-3.4-4.5-3.9-11.2-1.4-19.8l2.6-8.9c5.2-18.3 18.4-27.5 39.2-27.5 10.7-.1 18 2.4 21.8 7.4Zm-18.9 20.8c1.6-5.6 1.6-9.3-.1-11.5-1.3-1.7-3.6-2.6-7.1-2.6-7.7 0-12.2 4.1-15 13.8l-2.1 7.4c-1.6 5.6-1.6 9.3.1 11.5 1.3 1.7 3.6 2.6 7.1 2.6 7.7 0 12.2-4.1 15-13.8l2.1-7.4Zm89.2-20.8c3.4 4.5 3.9 11.2 1.4 19.8l-2.6 8.9c-5.2 18.3-18.4 27.5-39.2 27.5-10.7 0-18.1-2.5-21.8-7.4-3.4-4.5-3.9-11.2-1.4-19.8l2.6-8.9c5.2-18.3 18.4-27.5 39.2-27.5 10.7-.1 18.1 2.4 21.8 7.4Zm-18.8 20.8c1.6-5.6 1.6-9.3-.1-11.5-1.3-1.7-3.6-2.6-7.1-2.6-7.7 0-12.2 4.1-15 13.8l-2.1 7.4c-1.6 5.6-1.6 9.3.1 11.5 1.3 1.7 3.6 2.6 7.1 2.6 7.7 0 12.2-4.1 15-13.8l2.1-7.4Zm-251.2-20.2c1.9 3.4 1.8 8.2-.1 14.4l-11.6 39.8h-35.8c-7.7 0-12.2-2.1-15.5-6.5-3.1-4-3.8-9.8-2.3-15.3 3.9-14.3 16.4-17 37.6-17h7.6l.7-2.4c1-3.3.9-5.2 0-6.4-1.1-1.4-3.3-2.1-8.1-2.2-4.4-.1-14.7.2-25.4 1.4l3.4-12.1c10.7-2.1 28.5-1.8 28.6-1.8 5 .2 9.1.8 12.4 1.8 4.1 1.4 6.9 3.5 8.5 6.3Zm-23.6 27.6h-7.8c-5.9 0-12.9.9-14.2 7.1-.5 2.2.4 4.3 1.6 5.6 1.8 1.9 4.1 1.8 6.5 1.8l9.8-.3 4.1-14.2Zm-58.5-34.2-6.6 23h-17.9l6.5-23h-20.2l-17.4 60.8h20.1l6.9-24h17.9l-6.9 24h20.2l17.4-60.8h-20Z" fill="#000"/><path d="M107.247.1c-2.2 21.3-15.2 39.5-33.5 49.3-.5.3-1-.4-.5-.8 14.2-11.7 23.4-29 24.3-48.5h-18c-2.2 16.5-12.6 30.5-27.1 37.8-.5.3-1-.4-.5-.8 10.4-9.2 17.3-22.3 18.1-37h-18c-1.3 7.5-5.1 14-10.1 19.4-12.2 13.3-31.8 14.8-41.3 14 0 0-.4-.1-.6.3-.2.4.3.6.3.6 15.8 8.9 28.4 17.3 51.4 34.2 5.6 4.1 11 5.3 16.6 4 35.8-8.4 56.6-45.4 56.8-72.6h-17.9v.1Z" fill="#FF4C00"/></svg>