<svg xmlns="http://www.w3.org/2000/svg" width="50" height="46.667" viewBox="0 0 50 46.667"><g transform="translate(-16 -32)"><path d="M84.485,99.292a.833.833,0,0,0-1.152,0L64.16,117.609a.833.833,0,0,0-.257.6l0,17.191a3.333,3.333,0,0,0,3.333,3.333H77.241a1.666,1.666,0,0,0,1.666-1.666V122.905a.833.833,0,0,1,.833-.833h8.331a.833.833,0,0,1,.833.833v14.164a1.666,1.666,0,0,0,1.666,1.666h10a3.333,3.333,0,0,0,3.333-3.333V118.212a.833.833,0,0,0-.257-.6Z" transform="translate(-42.906 -60.069)" fill="#b1976b"/><path d="M65.469,54.118l-7.792-7.461V35.336a1.667,1.667,0,0,0-1.667-1.668h-5a1.667,1.667,0,0,0-1.667,1.668v3.336L43.311,32.9A3.242,3.242,0,0,0,41,32h0a3.231,3.231,0,0,0-2.306.9L16.537,54.116a1.7,1.7,0,0,0-.14,2.332,1.666,1.666,0,0,0,2.415.111L40.427,35.887a.833.833,0,0,1,1.152,0L63.2,56.559a1.666,1.666,0,0,0,2.353-.046A1.711,1.711,0,0,0,65.469,54.118Z" transform="translate(0)" fill="#b1976b"/></g></svg>