<svg xmlns="http://www.w3.org/2000/svg" width="420.66" height="74.9"><path d="M0 8.29h11.4v18.15l11-18.15h10.83l-10 16 12.4 27.9H22.3l-6.77-16.58L11.42 42v10.18H0ZM37.3 8.29h29.63v10.13H49.11v6.36h14.43v9.82H49.11v7.1h17.82v10.47H37.3ZM71.54 8.29h12.22v33.15h15.52v10.75H71.54ZM134 33.66 120.74 8.29H134l6.92 14.47 6.62-14.48h10.62L145.79 33.6v18.6H134ZM277.1 18.88h-8.3V8.28h27.93v10.6h-8.11v33.31H277.1ZM299.88 8.29h12.21V52.2h-12.21ZM328.26 17.61h6.32a3.86 3.86 0 0 1 3.93 4.06c0 2.84-1.66 4.12-4.4 4.32h-5.85ZM316 52.2h12.28V35.44H332l5.79 16.77h13.48L344.13 33c5.09-2.44 7.06-6.36 7-11.81-.06-5.66-2.84-13.38-16.28-13H316ZM409.57 21.74c-1.12-2.62-2.55-4.37-6-4.37-2.82 0-4.23.73-4.37 2.75-.44 6.13 21.46.35 21.46 18.21 0 7.25-5.73 14.48-17.27 14.48-7 0-15.44-2.15-18.19-13.33l11.25-2.27a6.61 6.61 0 0 0 6.81 5.35c4.33 0 5.06-1.5 5-2.75.69-6.28-20.78-.94-21-17.81.19-8.75 6.25-14.63 16.62-14.38 5.53.13 12.37 2.19 15.69 10.69ZM102.68 8.3h12.22v33.15h15.52V52.2h-27.74ZM354.18 8.29h29.63v10.13H366v6.36h14.43v9.82H366v7.1h17.82v10.47h-29.64Z" fill="#3a9144"/><path d="M189.13 38.53v13.62H167V8.27h22.1v16l18-24.14h24.48l-18 24.82a7.3 7.3 0 0 0 .34 8.84L224.49 45a5.59 5.59 0 0 1 .68 7.48c-2.49 3.32-9.52 12.92-9.52 12.92Z" fill="#3a9144" fill-rule="evenodd"/><path d="M262.94 0h-27.88l-19 25.78a5 5 0 0 0 .59 6.8l9.09 9.18c7.14 7.14 2.55 10.37.85 13.26L211.74 74.9h28.52l15.44-21.75c4.25-5.95 1.53-7.82-1.7-11.39l-7.65-7.82c-4.93-4.93-2.38-7.31-1.87-8.67Z" fill="#3a9144" fill-rule="evenodd"/></svg>