<svg width="601" height="146" fill="none" xmlns="http://www.w3.org/2000/svg"><path d="M495.1 41.7c0 1.5.2 3 .8 4.4 2.6 6.4 9.1 10.3 17.3 6.9 2-.8 56.8-22.9 56.8-22.9s-21.6 54.7-22.4 56.7c-3.1 7.8.6 14.9 7.1 17.3 1.4.5 2.9.8 4.4.8 5.2 0 9.8-3.1 12.1-9.3.4-.9 27.3-75 27.9-76.8.3-1 1-3.5 1-5.2 0-3.7-1.4-7.1-4-9.7-2.6-2.6-6-3.9-9.6-3.9-1.7 0-3.2.3-5.3 1-1.3.4-70.8 26.3-76.8 28.5-6.1 2.2-9.3 7-9.3 12.2Z" fill="#E60012"/><path d="m36.9 144.5-24.2-34.8 24.1-30.9h14.5l-24.6 30.4L53 144.5H36.9ZM0 78.8h12.6v65.7H0V78.8ZM107.1 130.5c-3.4 11-13.9 15.3-24.7 15.3-10.4 0-20.7-4.1-24.4-14.6-1.4-3.9-1.6-8.2-1.6-12.3V78.8h12.7v37.7c0 4-.2 9.1 1.9 12.8 2.3 4.2 7.1 5.6 11.5 5.6 4.2 0 8.9-1.4 11.2-5.2 2.2-3.6 2.1-8.4 2.1-12.5V78.9h12.7v41c-.1 3.6-.3 7.2-1.4 10.6ZM171.2 144.5V93.2l-14.1 51.3h-13l-13.9-51.3v51.3h-11.3V78.8h17.6l14.2 52.2 14.4-52.2h17.4v65.7h-11.3ZM232 144.5v-29h-26v29h-12.7V78.8H206V105h26V78.8h12.7v65.7H232ZM282.7 88.3c-12.7 0-16.5 12.8-16.5 23.4 0 10.5 3.7 23.3 16.5 23.3 12.7 0 16.6-12.8 16.6-23.3 0-10.6-3.9-23.4-16.6-23.4Zm14.9 53.6c-4.5 2.7-9.8 3.9-14.9 3.9-4.3 0-9.2-1.1-13.1-3.1-12.1-6.2-16.5-18.2-16.5-31.1 0-12.6 4-24.1 15.5-30.6 4.3-2.4 9.3-3.6 14.2-3.6 7.7 0 15.3 2.8 20.7 8.4 6.6 6.8 9 16.6 9 25.8 0 12.3-3.9 23.7-14.9 30.3ZM361.6 89.6v54.9h-12.7V89.6h-17.3V78.8H379v10.8h-17.4ZM401.2 78.8h-12.7v65.7h12.7V78.8ZM440.2 90.8c-2.8-1.3-6.7-1.2-9.8-1.2h-6v19h8.3c6.7 0 12.6-1.9 12.6-9.8-.1-3.6-1.7-6.5-5.1-8Zm6.7 53.7-13.4-25.1h-9.1v25.1h-12.7V78.8h17.8c5.3 0 10.9-.2 15.9 1.7 8.3 3 12.7 9.9 12.7 18.5 0 8.4-4 14.7-11.6 18.2l15.1 27.3h-14.7ZM467.1 144.5V78.8h41.4v10.8h-28.8V105h26.2v10.8h-26.2v17.9h29.8v10.8h-42.4Z" fill="#515151"/></svg>