<svg xmlns="http://www.w3.org/2000/svg" xmlns:xlink="http://www.w3.org/1999/xlink" version="1.1" x="0px" y="0px" viewBox="0 0 64 80" style="enable-background:new 0 0 64 64;" xml:space="preserve"><g><path d="M42,32.83V11.75H30.97c0.01,0.12,0.03,0.24,0.03,0.36V15H17v-2.89c0-0.12,0.02-0.24,0.03-0.36H6V58h36v-1.99   c-1.2-0.88-2.19-1.76-3-2.69V55H9V17h30v16.5C39.91,33.24,40.92,33.01,42,32.83z"/><path d="M27,9.1145V9c0-1.6569-1.3431-3-3-3h0c-1.6569,0-3,1.3431-3,3v0.1145h0c-1.6569,0-3,1.3431-3,3V14h12v-1.8855   C30,10.4576,28.6569,9.1145,27,9.1145L27,9.1145z"/><path d="M35.88,34.63c0.59-0.28,1.3-0.56,2.12-0.83V18H10v36h28v-1.97c-2.51-3.74-2.69-8.44-2.7-16.49v-0.63L35.88,34.63z    M19.5,24.5H22V22h4v2.5h2.5v4H26V31h-4v-2.5h-2.5V24.5z M34,50.5H14v-1h20V50.5z M34,46.5H14v-1h20V46.5z M34,42.5H14v-1h20V42.5z    M34,38.5H14v-1h20V38.5z"/><path d="M47.15,33.38c-4.48,0-8.57,1.09-10.85,2.16C36.32,48.74,36.74,52.4,47.15,58C57.56,52.4,57.98,48.74,58,35.54   C55.72,34.47,51.63,33.38,47.15,33.38z M47.6455,55.4404l-0.4951,0.2832l-0.4951-0.2832   c-7.5029-4.2783-8.2813-7.2021-8.3486-17.8477l-0.0049-0.7324l0.6963-0.2256c1.4434-0.4688,4.4219-1.2549,8.1523-1.2549   c3.7295,0,6.708,0.7861,8.1514,1.2549l0.6963,0.2256l-0.0049,0.7314C55.9268,48.2373,55.1484,51.1602,47.6455,55.4404z"/><path d="M47.1504,36.3799c-3.0693,0-5.8584,0.5615-7.8438,1.2056c0.0654,10.2998,0.6953,12.9097,7.8438,16.9868   c7.1484-4.0776,7.7783-6.6875,7.8428-16.9868C53.0078,36.9414,50.2188,36.3799,47.1504,36.3799z M46.4629,46.6895l-2.7383-2.7383   l0.707-0.707l2.0313,2.0313l3.7461-3.7461l0.707,0.707L46.4629,46.6895z"/></g></svg>