<svg xmlns="http://www.w3.org/2000/svg" width="325" height="80.73" viewBox="0 0 325 80.73"><g transform="translate(-0.879)"><path d="M.879,48.595V9.394l19.6,10.889V37.815l15.681,8.82,15.68-8.82V20.283l19.6-10.889v39.2L36.16,68.2Z" transform="translate(0 12.535)" fill="#192657"/><path d="M10.679,25.9l-9.8-5.629L36.16,0,71.441,20.266,61.64,25.9V55.731L36.16,70.93l-25.481-15.2Zm49.9.61L51.84,31.525v-.113l-15.68-9.12-15.681,9.12v.113l-8.739-5.019v28.6L36.16,69.673,60.579,55.107Z" transform="translate(0)" fill="#0e152f" fill-rule="evenodd"/><path d="M43.7,43.844V10.915H49.91V38.2H64.963v5.645Z" transform="translate(49.371 13.026)" fill="#192657"/><path d="M66.685,39.848a13.6,13.6,0,0,1-6.256-1.411,10.582,10.582,0,0,1-4.375-4.092,12.356,12.356,0,0,1-1.6-6.445v-.753a12.356,12.356,0,0,1,1.6-6.445,10.582,10.582,0,0,1,4.375-4.092,14.573,14.573,0,0,1,12.513,0A10.582,10.582,0,0,1,77.316,20.7a12.358,12.358,0,0,1,1.6,6.445V27.9a12.358,12.358,0,0,1-1.6,6.445,10.582,10.582,0,0,1-4.375,4.092A13.6,13.6,0,0,1,66.685,39.848Zm0-5.269A6.209,6.209,0,0,0,71.2,32.839a6.872,6.872,0,0,0,1.788-5.08v-.47A6.709,6.709,0,0,0,71.2,22.255a6.024,6.024,0,0,0-4.516-1.788,6.121,6.121,0,0,0-4.516,1.788,6.709,6.709,0,0,0-1.788,5.033v.47a6.872,6.872,0,0,0,1.788,5.08A6.209,6.209,0,0,0,66.685,34.58Z" transform="translate(61.809 17.887)" fill="#192657"/><path d="M67.244,27.618v-.753A12.557,12.557,0,0,1,68.7,20.608a10.088,10.088,0,0,1,3.857-4A10.452,10.452,0,0,1,77.875,15.2a8.576,8.576,0,0,1,4.845,1.129,8.17,8.17,0,0,1,2.4,2.352h.847V15.857H91.8V43.33a5.149,5.149,0,0,1-1.411,3.81A5,5,0,0,1,86.625,48.6H71.008V43.424H84.555q1.317,0,1.317-1.411V35.944h-.847A8.073,8.073,0,0,1,83.709,37.5a6.994,6.994,0,0,1-2.258,1.27,10.515,10.515,0,0,1-3.575.517A10.733,10.733,0,0,1,72.56,37.92a10.517,10.517,0,0,1-3.857-4A12.826,12.826,0,0,1,67.244,27.618Zm12.325,6.492a6.146,6.146,0,0,0,6.4-6.633v-.471a6.41,6.41,0,1,0-12.8,0v.471a6.146,6.146,0,0,0,6.4,6.633Z" transform="translate(76.566 18.154)" fill="#192657"/><path d="M92.838,39.848a13.6,13.6,0,0,1-6.257-1.411,10.582,10.582,0,0,1-4.375-4.092,12.358,12.358,0,0,1-1.6-6.445v-.753a12.358,12.358,0,0,1,1.6-6.445,10.582,10.582,0,0,1,4.375-4.092,14.574,14.574,0,0,1,12.513,0,10.582,10.582,0,0,1,4.375,4.092,12.356,12.356,0,0,1,1.6,6.445V27.9a12.356,12.356,0,0,1-1.6,6.445,10.582,10.582,0,0,1-4.375,4.092A13.6,13.6,0,0,1,92.838,39.848Zm0-5.269a6.209,6.209,0,0,0,4.516-1.741,6.872,6.872,0,0,0,1.788-5.08v-.47a6.709,6.709,0,0,0-1.788-5.033,6.023,6.023,0,0,0-4.516-1.788,6.122,6.122,0,0,0-4.516,1.788,6.71,6.71,0,0,0-1.787,5.033v.47a6.873,6.873,0,0,0,1.787,5.08A6.209,6.209,0,0,0,92.838,34.58Z" transform="translate(91.981 17.887)" fill="#192657"/><path d="M94.379,44.187V20.854h5.927V44.187Zm2.963-26.061a3.894,3.894,0,0,1-2.728-1.035,3.6,3.6,0,0,1-1.082-2.728,3.6,3.6,0,0,1,1.082-2.729A3.9,3.9,0,0,1,97.342,10.6a3.79,3.79,0,0,1,2.729,1.035,3.6,3.6,0,0,1,1.082,2.729,3.6,3.6,0,0,1-1.082,2.728A3.789,3.789,0,0,1,97.342,18.126Z" transform="translate(106.552 12.665)" fill="#192657"/><path d="M98.912,48.6V15.857h5.833V18.68h.847a7.044,7.044,0,0,1,2.493-2.4,9.017,9.017,0,0,1,4.845-1.082,10.214,10.214,0,0,1,9.078,5.457,13.415,13.415,0,0,1,1.458,6.492V27.9a13.415,13.415,0,0,1-1.458,6.492,9.981,9.981,0,0,1-9.078,5.457,10.771,10.771,0,0,1-3.576-.517,6.934,6.934,0,0,1-2.3-1.223,8.765,8.765,0,0,1-1.365-1.6h-.847V48.6Zm12.231-13.924a6.269,6.269,0,0,0,4.563-1.741,6.9,6.9,0,0,0,1.834-5.175v-.47a6.741,6.741,0,0,0-1.834-5.128,6.718,6.718,0,0,0-9.126,0,6.741,6.741,0,0,0-1.834,5.128v.47a6.9,6.9,0,0,0,1.834,5.175A6.372,6.372,0,0,0,111.143,34.674Z" transform="translate(113.101 18.154)" fill="#192657"/><path d="M122.651,39.848a13.071,13.071,0,0,1-7.48-1.976,8.133,8.133,0,0,1-3.528-5.645l5.458-1.411a5.979,5.979,0,0,0,1.081,2.587,4.639,4.639,0,0,0,1.93,1.364,8.279,8.279,0,0,0,2.539.376,5.311,5.311,0,0,0,3.059-.706A2.243,2.243,0,0,0,126.7,32.6a1.808,1.808,0,0,0-.941-1.646,8.562,8.562,0,0,0-3.011-.988l-1.317-.235a24.95,24.95,0,0,1-4.469-1.27,8.36,8.36,0,0,1-3.247-2.3A5.667,5.667,0,0,1,112.49,22.4a6.15,6.15,0,0,1,2.541-5.316A10.949,10.949,0,0,1,121.71,15.2a11.375,11.375,0,0,1,6.491,1.741A8.024,8.024,0,0,1,131.59,21.5l-5.5,1.693a3.755,3.755,0,0,0-1.552-2.54,4.984,4.984,0,0,0-2.823-.753,4.573,4.573,0,0,0-2.587.612,1.79,1.79,0,0,0-.893,1.6,1.847,1.847,0,0,0,.941,1.693,8.348,8.348,0,0,0,2.539.8l1.317.235a26.819,26.819,0,0,1,4.753,1.27,7.527,7.527,0,0,1,3.386,2.211,5.553,5.553,0,0,1,1.271,3.857,6.716,6.716,0,0,1-2.683,5.692A11.565,11.565,0,0,1,122.651,39.848Z" transform="translate(127.694 17.887)" fill="#192657"/><path d="M132.071,39.223a9.253,9.253,0,0,1-4.8-1.223,8.694,8.694,0,0,1-3.153-3.481,11.038,11.038,0,0,1-1.129-5.08V15.514h5.928V28.968a5.489,5.489,0,0,0,1.271,3.951,5.02,5.02,0,0,0,3.716,1.317,5.233,5.233,0,0,0,4.234-1.788,7.788,7.788,0,0,0,1.5-5.08V15.514h5.928V38.847h-5.834V35.789h-.845a6.494,6.494,0,0,1-2.118,2.3A8.005,8.005,0,0,1,132.071,39.223Z" transform="translate(142.051 18.235)" fill="#192657"/><path d="M135.962,39.043V15.71h5.832v2.54h.847a5.213,5.213,0,0,1,2.022-2.023,6.869,6.869,0,0,1,3.718-.894,7.19,7.19,0,0,1,4,.988,6.3,6.3,0,0,1,2.306,2.493h.845a6.89,6.89,0,0,1,2.26-2.493,7.342,7.342,0,0,1,4.14-.988,8.077,8.077,0,0,1,3.9.941,6.515,6.515,0,0,1,2.823,2.775,9.072,9.072,0,0,1,1.081,4.657V39.043h-5.928V24.131a3.446,3.446,0,0,0-3.762-3.858,3.932,3.932,0,0,0-3.153,1.317,5.517,5.517,0,0,0-1.081,3.669V39.043h-5.928V24.131a3.8,3.8,0,0,0-.987-2.87,3.755,3.755,0,0,0-2.777-.988,3.927,3.927,0,0,0-3.151,1.317,5.506,5.506,0,0,0-1.083,3.669V39.043Z" transform="translate(156.142 18.023)" fill="#192657"/></g></svg>