<svg xmlns="http://www.w3.org/2000/svg" width="187.095" height="56.952"><g fill-rule="evenodd"><path d="M3.825 17.919h183.27v30.59H3.825v-30.59Z" fill="#2e3192"/><path d="m39.895 38.749 5-14h7.11c1.78 0 2.62.79 2.47 2.39l-.38 4.66 4.69-7.06h9.6l-5.12 14h-6.13l3.49-9.45-6.55 9.45h-5.07l.43-9.63-3.57 9.63ZM66.945 38.749l5.15-13.96h6.69l-5.17 13.96ZM100.105 24.789l-5.27 13.96h6.42l1.86-4.89 3.34.05-1.81 4.84h6.42l5.01-13.96h-6.49l-1.86 4.82-3.13.05 1.86-4.87ZM119.795 24.789h13.96l-1.3 3.62h-7.49l-.63 1.43 7.59.05-1.3 3.59-7.57.05-.56 1.22 7.7-.05-1.46 4.05h-14.03l5.09-13.96ZM137.195 24.789l-5.17 13.96h12.91l2.07-4.89-6.68.05 3.39-9.12ZM147.205 38.749l5.02-13.96h6.72l-5.19 13.96ZM157.465 38.749l5.07-14h7.41c1.43 0 2.34.69 2.29 2l-.23 6.93 3.39-8.89h5.55l-5.07 14h-9.48l.38-9.65-3.51 9.65ZM93.565 34.009l-1.73 4.3a30.869 30.869 0 0 1-4.92.59 11.24 11.24 0 0 1-6.72-1.81 4.62 4.62 0 0 1-1.55-2.88 6.62 6.62 0 0 1 .27-2.2c1.71-4.56 6.06-6.93 13.32-7.51a12.32 12.32 0 0 1 4.56.79l-1.94 4.58a3 3 0 0 0-2.5-1.32 8.46 8.46 0 0 0-1.6.08c-3 .64-4.28 1.94-4.43 3.39a3.16 3.16 0 0 0 .05 1.2c.36 1.22 2.85 1.55 3.39 1.53a9.64 9.64 0 0 0 3.8-.71Z" fill="#fff"/><path d="M3.825 42.949h148.5l-.84 1.91H3.825v-1.91Z" fill="#fff200"/><path d="M22.005.319c1.3-.05 1.55.48 1.78 1.07 1.76.23 2.42 1.48 2.6 3.21 1.62 1.96 1.62 3.41.75 4.76a12.72 12.72 0 0 1 5 1.91 3.11 3.11 0 0 1 1.87 3.67 5 5 0 0 1 1.07 4.81h-.07l.08.08a4.46 4.46 0 0 1 1.1 2.65c1.71.74 2.37 2.16 1.5 4.58l1.1.48c3.34 3.18 2.27 5.48-.84 4.94-1.17.71-2.24 1.2-2.67-.1l-.61-1.07c-.79-.25-.92-.89-.43-1.86a5.17 5.17 0 0 1-2.67-1.17 6.85 6.85 0 0 1-.87 3.41c.54 2.16-.05 3.44-1.17 4.33 0 .79 0 1.58-.05 2.37a3.27 3.27 0 0 1-.69 4.33c.08 2.14-.43 3.79-2.22 4.43.2.54.38 1.1.56 1.63l2.75 2c.15.58.33 1.2.51 1.81 0 1.09-.94 1.91-2.83 2.47-1-.05-1.91-.13-3-.18-.36-.43-.94-.87-1.3-1.3-.48-.64-1-1.27-1.48-1.91-1.2-1.33-1.6-2.9-.25-5-1.63-.59-2-2.67-1.81-5.45-.2-.36-.28-.94-.48-1.27-.08.13-.28.51-.36.66-.08 2.57-.94 4-2.14 4.94-.69 2.45-1.86 3.26-3.26 3.34a2.91 2.91 0 0 0-.64 2.6c.15 1.1.71 2.19.51 3.29-.61 3.77-8.51 2-8-1.73.38-2 2.83-3.29 3.34-5.37-1.68-1.62-2.23-3.5-.55-5.9a5.33 5.33 0 0 1 2.34-5.71 6 6 0 0 1 .87-5.63q-.65-3.32.92-4.13a5.29 5.29 0 0 1-.26-3.3c-.13-.46-.23-.94-.33-1.4a1.91 1.91 0 0 0-.38 0 4 4 0 0 1-2.93-2.22c-1.94-.15-3.29-1.4-4.08-3.77a4.36 4.36 0 0 1-1.78-3.33 3 3 0 0 1 .25-3.49 2.66 2.66 0 0 1-1.65-2.19c-.51-.2-.69-2-.66-4.05-.44-.16-.54-.55-.36-1.3l.51-.51.61-.61a1.36 1.36 0 0 1 1.6.3 2.28 2.28 0 0 1 2.42 1.5c1-.66 2-.66 2.7.87a2.63 2.63 0 0 1-.43 1.2 3.81 3.81 0 0 1 .69 2.57c.59.46 1.53 1.27 1.58 2a7.29 7.29 0 0 1 1.81 1.43 5.35 5.35 0 0 1 2.8.41 6 6 0 0 1 2.75-.59 3.59 3.59 0 0 1 .2-4 4.13 4.13 0 0 1 2.5-4.46 2.33 2.33 0 0 1 2.18-1.05Z" fill="#fff"/><path d="m38.805 27.539-1.1-.48c.61-1.71.46-2.93-.31-3.77a3.13 3.13 0 0 0-.61-.51l-.59-.31a6.111 6.111 0 0 0-.1-.71 3.91 3.91 0 0 0-.86-1.75c-.05-.05-.08-.1-.13-.15s-.05-.05-.08-.05h.08a5.361 5.361 0 0 0 .13-.61 5.09 5.09 0 0 0 0-1.86 3.54 3.54 0 0 0-.2-.69 5.49 5.49 0 0 0-.81-1.43c-.05-.08-.13-.15-.18-.23a3.11 3.11 0 0 0-1.91-3.67 3.29 3.29 0 0 1-.38-.25 13.36 13.36 0 0 0-4.58-1.63c.76-1.2.87-2.55-.36-4.3-.13-.15-.23-.31-.36-.46-.18-1.73-.84-3-2.6-3.21v-.05a1.33 1.33 0 0 0-1-1 2.46 2.46 0 0 0-.85-.1 3.58 3.58 0 0 0-.79.08 2.14 2.14 0 0 0-1.43 1 4.13 4.13 0 0 0-2.5 4.46 3.59 3.59 0 0 0-.2 4 4.49 4.49 0 0 0-.82.05 5.15 5.15 0 0 0-1.94.53 5.35 5.35 0 0 0-2.8-.41 18.59 18.59 0 0 0-1.5-1.2 1.27 1.27 0 0 0-.31-.17c-.06-.73-1-1.54-1.58-2a3.81 3.81 0 0 0-.64-2.65 2.63 2.63 0 0 0 .43-1.2 2.51 2.51 0 0 0-.82-1.07 1.64 1.64 0 0 0-1.88.2 3 3 0 0 0-1.07-1.24 1.89 1.89 0 0 0-1.35-.26 1.36 1.36 0 0 0-1.6-.3l-.61.61-.51.51c-.18.75-.08 1.14.36 1.3 0 2.09.05 3.64.64 4.08a2.68 2.68 0 0 0 1.67 2.16 3 3 0 0 0-.25 3.49 4.4 4.4 0 0 0 1.66 3.26l.13.08a5.25 5.25 0 0 0 2.82 3.48 3.89 3.89 0 0 0 1.25.28 5 5 0 0 0 1.71 1.83 3.43 3.43 0 0 0 1.22.38 1.91 1.91 0 0 1 .38 0c.1.46.2.94.33 1.4a5.29 5.29 0 0 0 .25 3.34q-1.57.8-.92 4.13a6 6 0 0 0-.87 5.63l-.41.31a5.25 5.25 0 0 0-1.94 5.4c-1.68 2.39-1.1 4.28.53 5.93a6.23 6.23 0 0 1-1.55 2.52 6.63 6.63 0 0 0-1.78 2.85 3.1 3.1 0 0 0 1.78 3 6.39 6.39 0 0 0 3 .84c1.6.05 3.06-.56 3.31-2.09.2-1.1-.36-2.19-.51-3.29a3 3 0 0 1 .64-2.6 3.09 3.09 0 0 0 2.78-2c.15-.38.31-.79.46-1.27 1.2-.92 2.06-2.37 2.14-4.94.08-.15.28-.56.36-.69.2.33.2 1 .41 1.37-.54 2.6.15 4.53 1.58 5.25l.31.13c-.1.18-.2.33-.28.48a3.43 3.43 0 0 0 0 3.72 5.11 5.11 0 0 0 .56.74c.36.43.69.87 1 1.3l.46.61.51.66a1.87 1.87 0 0 0 .79.64 5.82 5.82 0 0 0 2.19.18 4.1 4.1 0 0 1 .79 0c1.88-.56 2.8-1.38 2.83-2.47a2.77 2.77 0 0 0-.51-1.81l-2.75-2c-.1-.36-.23-.71-.36-1.09-.08-.18-.13-.36-.2-.54l.2-.08c1.6-.69 2.09-2.29 2-4.35a3.27 3.27 0 0 0 .69-4.33c0-.79 0-1.58.05-2.37 1.12-.89 1.71-2.17 1.17-4.33a6.85 6.85 0 0 0 .87-3.41l.15.1a3.58 3.58 0 0 0 .38.28 4.62 4.62 0 0 0 2.11.76.09.09 0 0 0 0 .05c-.36.71-.36 1.22 0 1.55a1.55 1.55 0 0 0 .46.25c.13.2.25.41.36.61s.13.25.2.36 0 .08.05.1c.18.54.46.76.81.82a1.74 1.74 0 0 0 .69-.1 6.55 6.55 0 0 0 .61-.28c.2-.1.38-.23.56-.33 1.63.28 2.7-.23 2.88-1.2v-.64a6.15 6.15 0 0 0-2-3.11Zm-3.8-5.47a1.28 1.28 0 0 1 .05.33v.13a.146.146 0 0 1-.05.13 4.777 4.777 0 0 1-.61.97 1 1 0 0 1-.2.25 4.93 4.93 0 0 1-.36.38 4.4 4.4 0 0 1-.36.28 4.33 4.33 0 0 1-.59.33c-.13.05-.25.08-.36.13a2.82 2.82 0 0 1-.46.05h-.18a.5.5 0 0 1-.2 0v-.33l-.08-.76.1-.1.05-.08.33-.48.08-.1.31-.64.2-.69v-.2l.28-.08.25-.15a3.649 3.649 0 0 0 .38-.28 2 2 0 0 0 .33-.33 2.72 2.72 0 0 1 .23-.28l.13.13a3 3 0 0 1 .73 1.39Zm-1.76-5.71a2.426 2.426 0 0 0 .2-.36 4.809 4.809 0 0 1 .43.71c.05.15.13.31.18.48a1.45 1.45 0 0 1 .13.36 2.89 2.89 0 0 1 0 .66 4.81 4.81 0 0 1-.58 1.8l-.13.18a2.75 2.75 0 0 1-.25.28 4.861 4.861 0 0 1-.43.33v-.49l-.13-.79-.25-.87-.31-.64v-.18l.13-.25.13-.41.1-.05.25-.15a2.18 2.18 0 0 0 .36-.33l.2-.25Zm-1.89-4.28a1.38 1.38 0 0 0 .33.18.55.55 0 0 0 .15.1l.23.15a1.89 1.89 0 0 1 .94 1.38 5.18 5.18 0 0 1-.08 1.1 4 4 0 0 1-.1.59 2.36 2.36 0 0 0-.18.36l-.15.18-.05-.51-.15-.69-.18-.48-.1-.25-.28-.56-.1-.18-.41-.59.05-.15v-.43a.87.87 0 0 0-.08-.33l.2.13Zm-.64 1.45.2.33.36.66.23.61.15.59v.63l-.05.43-.15.48-.23.46-.28.43-.38.41-.46.36-.51.36-.56.33-.61.28-.66.25-.71.23-.33.08-.41.1-.76.15-.79.13-.81.05h-1.6l-.79-.05h-.36l-.43-.05-.76-.1-.74-.15-.71-.2-.66-.23-.61-.25-.56-.33-.46-.31h-.05l-.22-.2.23-.33.2-.33.18-.36.15-.38.13-.38.08-.41.08-.38v-.84l-.05-.41v-.05l.25.1.46.13.51.13.51.1.51.1.51.08 1.07.13h.33l.76.05h2.17l1.07-.1.51-.08.51-.08.48-.13.46-.1.46-.15.46-.13.43-.18.41-.18.38-.2.36-.2.36-.23.31-.25.28-.28.08-.08Zm-15.2-2.13a1.46 1.46 0 0 1 .79-.39 3.43 3.43 0 0 1 2.39.25c.2.15.43 0 .64 0l-.33-.7.41-.59-1.12-.82c-.29-.68-.79-1.42-.48-2.14a3.81 3.81 0 0 1 .66-1l.87-.13-.1-.25-.66-.41a2.42 2.42 0 0 1 .59-2 3.74 3.74 0 0 1 1-.69l.41-.2a3.51 3.51 0 0 1 .66-.71h.05a.9.9 0 0 1 1.55.59l.41.13a3.66 3.66 0 0 1 .56.15c.23.1.46.23.74.38.76.56.84 1.94.84 2.75 1.43 1 1.3 2.09.61 3.44l-.59.51v.64l-.46.81a2.79 2.79 0 0 1 1.86-.46 7 7 0 0 1 1.1.18 11.84 11.84 0 0 1 2.32.79 6.19 6.19 0 0 0 .25.74.63.63 0 0 1 .05.43 2.41 2.41 0 0 1-.38.51l-.23.2-.25.23-.31.18-.31.2-.36.18-.38.15-.38.15-.43.15-.43.13-.25.05-.2.05-.46.1-1 .15-1 .1h-2.16l-.79-.05h-.21l-1-.13-1-.15-.46-.1-.54-.17-.43-.13-.43-.15-.23-.08-.1-.31-.15-.41-.18-.41-.18-.36-.05-.05-.25-.37-.26-.35-.31-.36-.15-.18a.75.75 0 0 0 .23-.05Zm-11.33-2.76-.76-.89c-.43-.23-1-.43-1.15-.92a4.72 4.72 0 0 1-.66-1.45 3.12 3.12 0 0 1 0-2c.15-.46.41.05.56.71.3 1.52.83 2.13.83 1.73s.05-.1 0-.48-1-2.91-1.37-2.76c-.2 0-.38-.25-.43-.89.43-.15 1.15.84 2.45 2.9.05.1.23 0 .33 0a22.52 22.52 0 0 0-2-3.34h.23c.84.31 1.48 1.45 2 2.52a3 3 0 0 1 .2.41c.05.1.36.13.33 0a6.53 6.53 0 0 0-.59-1.37 11.18 11.18 0 0 0-.76-1.27.8.8 0 0 1 .76.36 2.9 2.9 0 0 1 .25.33 2 2 0 0 1 .43 1.22 6.48 6.48 0 0 1 .17 2.44c.38 0 .61-.31.84-1.35a1.84 1.84 0 0 1 .25-1.83c.31-.13.36-.23.59 0l.13.2a4.15 4.15 0 0 0-.13 1.58c.13.69.28.64.41 1.32a25.036 25.036 0 0 0-.09 3.73c0 .05.05 0 .1 0 .25-.31.82-1.81.82-1.68.53.41.18.08.59.61a1.75 1.75 0 0 1 .15.31l.08.89v.05a3.64 3.64 0 0 1-.23.69l-.18.41-.23.36-.23.31-.25.25-.25.2-.26.07h-.11l-.33.13-.33.08-.34.09h-.42l-.43-.08a6.67 6.67 0 0 1-.69-.15l-.31-.07-.15-.1v-.1a1.6 1.6 0 0 1-.2-2.4 3.32 3.32 0 0 0 .36.31c.76.56 1.17.51 1.6.2a2 2 0 0 1-1.58-1.28Zm.92 6.24-.43-.36a2.19 2.19 0 0 1-.51-.69 3.84 3.84 0 0 1-.25-.71.76.76 0 0 1-.1-.46 1.48 1.48 0 0 1 .36.13h.08l.53.15.51.1h.99l.45-.03.38-.13h.05l.41-.18.18-.13.18-.13.36-.31.31-.36.25-.38.25-.46.2-.48c.05-.2.13-.38.18-.59h.1a3.41 3.41 0 0 1 .48.36 1.37 1.37 0 0 0 .23.18v.18l.08.69v1.23l-.05.25-.08.25-.08.25-.05.08-.05.15-.1.2-.13.2-.17.13-.15.18-.15.15-.18.13-.18.16-.2.1-.2.1-.23.1-.24.08-.25.08h-.28l-.28.05h-.93l-.39-.08-.29-.05-.38-.08Zm3.85 3.29-.49-.16a3.5 3.5 0 0 1-1.35-.43 3.7 3.7 0 0 1-1.63-1.83h.08l.38.05.38.05h1.05l.33-.05h.3l.28-.08.31-.08.28-.1.25-.13.25-.15.23-.18.23-.18.2-.2.18-.2.18-.23.15-.25.13-.28.13-.25.1-.31.08-.31.08-.31v-1.46h.81l.36.82.28.76.2.71.08.33.21.29v1.18l-.05.25-.08.25-.08.23-.1.23-.1.2-.15.2-.15.2-.19.26-.2.15-.23.18-.23.13-.28.15-.31.13-.33.13-.36.1h-.1l-.28.03-.41.1-.43.05Zm1.12 1.3a7.039 7.039 0 0 1-.43-.64l.33-.05h.1l.31-.08.38-.13.38-.13.33-.15.33-.15.31-.18.28-.2.23-.2.23-.23.15-.32.18-.25.15-.28.13-.28.1-.28.08-.33.05-.31v-1.02l-.05-.36-.05-.36-.08-.38-.1-.38-.13-.41-.06-.36-.33-.84-.05-.08a4.14 4.14 0 0 1 .94.2l.54.25.25.23.31.33.25.33.25.33.23.33.18.36.15.36.15.36.1.36.08.38v.05l.05.31v1.07l-.05.36-.08.33-.1.33-.13.31-.15.31-.2.31-.2.28-.23.28-.28.25-.28.23-.33.23-.33.2-.38.18-.41.15-.43.15h-.1v-.15c-1.5.13-2 .05-2.6-.61Zm11.77 13.6-.31.25-.28.2-.33.18-.36.18-.36.15-.38.13-.41.08-.41.05-.41.05h-.43l-.41-.05-.43-.05-.43-.1-.46-.13h-.13l-.3-.12-.41-.18-.43-.23-.38-.25-.41-.28-.37-.34-.38-.36-.33-.38-.29-.43-.31-.43-.2-.33a4.57 4.57 0 0 1 .2-3.18l.31-.2.33.41.51.46.53.43.63.41.66.36.66.28h.05l.74.28.76.25.81.2.81.18.84.13.84.08h.08l.79.05h1v.13l-.1.43-.05.1-.1.28-.18.36-.23.33-.23.31-.25.31Zm.08 3.49c.2.13.43.23.66.36l.25.1a2.27 2.27 0 0 0 .43.18l.46.13h.08l.41.1.48.05h.99l.51-.1.51-.1a.09.09 0 0 1 .08 0c.23-.08.46-.15.71-.25a5.541 5.541 0 0 0 .76-.41l.23-.1v1.6l-.13.18-.23.25-.23.23-.25.2-.23.18-.28.18-.25.15-.08.05-.18.1-.28.1-.28.1-.25.08-.28.08-.28.05-.25-.04h-1.21l-.13-.05-.25-.08-.23-.1-.23-.1-.13-.08-.1-.05-.2-.15-.2-.18-.2-.18-.18-.2-.18-.23-.15-.23-.16-.37-.13-.28-.08-.23v-.08l-.08-.2.05-.05a.1.1 0 0 1 .05-.08l.23-.38a4.018 4.018 0 0 0 .18-.36l.25.18Zm-9.69 17.78a2.75 2.75 0 0 1-2.17.82 6.68 6.68 0 0 1-2.67-1 5.46 5.46 0 0 0 2.67 1.48 6.94 6.94 0 0 0 1.27 0 2.45 2.45 0 0 1-1 .28h-.23a4.931 4.931 0 0 1-.61 0 4.55 4.55 0 0 1-2.34-1.22 3.69 3.69 0 0 1-.59-.82 1.34 1.34 0 0 1-.1-.76 4 4 0 0 1 .69-1.25 3.729 3.729 0 0 1 .41-.48 14.58 14.58 0 0 0 1.63-2.32 10.34 10.34 0 0 0 .51-.92v-.1l.36.2a4.07 4.07 0 0 0 .76.31 6 6 0 0 0 .92.23l.56.05a6.65 6.65 0 0 0-.51 2.62c.1.46.18.84.31 1.3s.48 1.17.13 1.48Zm.64-6.16h-.25a4.63 4.63 0 0 1-1.33-.17 1.23 1.23 0 0 1-.33-.1 3.87 3.87 0 0 1-.74-.33.56.56 0 0 1-.15-.1 4.5 4.5 0 0 1-.43-.31l-.16-.16-.31-.3a3.22 3.22 0 0 1-1-2.19 4 4 0 0 1 .69-1.88l.05-.08.28.56.33.51.18.23.18.2.13.15h.08l.2.2.2.18.23.18.23.13.23.15.25.13.25.1.28.1.28.08.56.13.59.05h1.3l.69-.1a.28.28 0 0 0 .13 0 3.35 3.35 0 0 1-2.7 2.62Zm3.72-3.9a1.06 1.06 0 0 1-.28.18 2.49 2.49 0 0 0-.64.31l-.36.08-.64.08h-1.18l-.49-.06-.51-.1-.49-.16-.41-.2-.41-.23-.36-.28-.36-.36-.31-.38-.09-.15-.15-.25-.25-.51-.23-.54-.13-.25-.15-.31a4.39 4.39 0 0 1 .38-2.42l.53-.61.25-.28v.38l.08.38.08.36.13.36.15.33.15.33.2.31.2.28.23.25.25.25.25.2.28.2.31.18.31.15.33.13.33.13.36.08.36.05h1.12l.38-.05.38-.1h.08l.33-.1.4-.13.38-.15.41-.2a3.58 3.58 0 0 1-1.22 2.83Zm1.25-3.82a3.891 3.891 0 0 1-.38.31l-.36.18-.36.15-.33.13h-.1l-.23.05-.36.08-.33.05h-.95l-.31-.05-.31-.05-.28-.1-.25-.1-.29-.1-.23-.15-.25-.15-.2-.2-.2-.18-.2-.23-.18-.23-.15-.25-.13-.25-.12-.36-.1-.28-.08-.31-.05-.33v-1.08l.53-.38.08.08.43.48.46.43.39.39.51.31.51.28.56.23.56.15.61.13.51.05h.74l.7-.15.66-.1.33-.08a4.29 4.29 0 0 1-.87 1.58Zm1.91-2.9a5.791 5.791 0 0 1-.51.33l-.13.05-.31.13-.25.05-.64.13-.61.08h-1.15l-.53-.08-.51-.13-.49-.11-.46-.23-.46-.25-.43-.31-.41-.36-.38-.41-.38-.46-.36-.51-.18-.25-.23-.46a5.35 5.35 0 0 1 .18-2.37 4.21 4.21 0 0 1 .51-1l.33.51.36.46.38.43.38.38.43.36.43.33.43.28.46.25.48.2.46.18h.13l.36.1.48.13.48.05.48.05h.48l.48-.05.46-.05.46-.1.43-.15.43-.15.38-.2.08-.05a.33.33 0 0 0 0 .15 3.12 3.12 0 0 1-.08.51v.08a5.709 5.709 0 0 1-.2.71 3.07 3.07 0 0 1-.18.43 3.13 3.13 0 0 1-.31.48 3.16 3.16 0 0 1-.36.46 5.631 5.631 0 0 1-.46.36Zm7 12.3c.76.48 1.6.89 2.34 1.43a1.25 1.25 0 0 1 .2.71c-.13.69-1.53 1.09-2.55 1.2a3.34 3.34 0 0 1-1 0c-.15.28.33.36 1 .36a6.93 6.93 0 0 0 2.17-.36 4.19 4.19 0 0 1-1.51.77 5.389 5.389 0 0 0-.66.05 3.75 3.75 0 0 1-1.71-.2c-.31-.31-.64-.59-.94-.92-.1-.15-.23-.3-.33-.46-.33-.41-.64-.81-1-1.25a1.3 1.3 0 0 0-.18-.2 2.19 2.19 0 0 1-.84-1.73 4 4 0 0 1 .53-2l.15-.2a1.425 1.425 0 0 1 .33.1l.43.08a3.811 3.811 0 0 0 .53.05h.2a13.461 13.461 0 0 0 1.43-.1 1.408 1.408 0 0 0 .1.31c-1.5.23-1.55.89-1 1 .28 0 .61-.18 1.25-.28a2.07 2.07 0 0 0 .18.56c-.23 0-1.68.64-1.25 1.07 0 0 1.4-.59 1.48-.38s.36.25.56.38Zm0-4.28a8.39 8.39 0 0 1-1.43.87 11.609 11.609 0 0 1-1.32.1h-.23a4 4 0 0 1-.76-.1v-.05a.75.75 0 0 1-.23-.05 2 2 0 0 1-1.07-.69 1.45 1.45 0 0 1-.51-.54 2.33 2.33 0 0 1-.2-.61 6.87 6.87 0 0 1-.23-2l.05.08.41.36.08.08.46.36.51.31.48.25h.05l.46.18.25.08.25.05h1.57l.28-.05.54-.15.53-.23.53-.28.41-.25a2.71 2.71 0 0 1-.94 2.34Zm1.35-3.72-.43.46a5.8 5.8 0 0 1-.51.33l-.41.23-.1.05-.46.23-.48.15-.46.1-.46.05h-.43l-.43-.05h-.15l-.28-.08-.43-.15-.25-.17h-.17l-.41-.28-.43-.31-.44-.41-.13-.15-.24-.31-.15-.18a4.27 4.27 0 0 1-.48-3.29l.23-.2.08.15.15.33.15.3.2.31.1.13.1.13.2.25.25.23.23.2.28.18.25.15.25.13.31.1.28.1.31.08h.05l.25.05.33.05h.63l.31-.05.33-.05.36-.04.33-.08.31-.13.18-.08.15-.05.31-.15.28-.18.31-.2.28-.23.28-.23.23-.2a2.78 2.78 0 0 1 .31 1 2.67 2.67 0 0 1-.79 1.73Zm.31-6.37a8.44 8.44 0 0 1-.76.54 6.13 6.13 0 0 1-.71.33.47.47 0 0 1-.18.05l-.51.15-.66.13h-.66a5 5 0 0 1-.61-.05l-.54-.1h-.1l-.59-.23a1 1 0 0 1-.28-.13l-.32-.17-.59-.38a.09.09 0 0 1 0-.08c.05-.26.1-.51.13-.76a6.51 6.51 0 0 0 .05-1l.25-.2.23-.25.23.1.23.13.43.18.31.08.15.05.48.08.48.05h.48l.48-.05.51-.08.38-.1.13-.05.51-.18.53-.23.51-.28.54-.33.51-.38a.45.45 0 0 0 .13-.1 3.42 3.42 0 0 1-1.2 3.23Zm2-6.78a5 5 0 0 1-.36 1.63c-.13.28-.25.56-.38.82l-.2.18c-.23.2-.48.41-.74.61a6.531 6.531 0 0 1-.71.46 6.08 6.08 0 0 1-.71.36 2.76 2.76 0 0 1-.59.23s-.08 0-.1.05l-.66.15-.64.08h-.64l-.61-.1a1.6 1.6 0 0 0-.33-.1 2.61 2.61 0 0 0-.25-.1c-.15-.05-.31-.13-.48-.2l.15-.23.2-.43.18-.46.13-.48.08-.33.76-.08.81-.1.81-.15.59-.15.18-.05.71-.25.71-.31.64-.33.64-.42.53-.43.33-.36v.53Zm.43-3.34-.1.61-.18.56-.28.51-.33.48-.35.48-.46.38-.53.36-.61.26-.61.28-.64.2h-.05l-.7.22-.76.15-.76.1-.69.08h-1.73l-.81-.03-.81-.1-.79-.13-.79-.15-.76-.2-.74-.23-.69-.28-.36-.15-.31-.13-.61-.33-.56-.36-.51-.38-.43-.43-.28-.31.05-.05-.54-1.17a4.57 4.57 0 0 1-.1-2.11l.13.15.69.53.71.48.79.43.82.41.15.05.69.28.89.28.89.25.94.18.94.15.59.05.36.05h2.8l.92-.1.89-.13.56-.13.31-.08.81-.23.79-.28.74-.33.69-.36.61-.43.18-.15v.79Zm-.15-1.68-.48.43-.56.38-.64.33-.66.31-.74.28-.76.2h-.13l-.69.15-.87.13-.87.1h-2.64l-.4.01-.51-.05-.89-.13-.85-.22-.87-.23-.84-.25-.79-.33-.15-.08-.64-.28-.71-.43-.66-.46-.64-.51-.38-.38a9.36 9.36 0 0 1-.56-1.65l.2-.05.48-.15.46-.18.43-.2.41-.23.36-.25.33-.28.08-.08.28.25.51.33.05.05.64.33.66.31.71.25.76.2.79.18.79.1.54.05h.31l.81.05h1.68l.84-.08.84-.1.79-.15.25-.08.53-.13.74-.23.71-.28.69-.31.61-.36.59-.41.51-.43.41-.43.1.25.05.08.18.66.13.71v.61l-.08.61-.18.56-.05.13-.2.41-.33.48-.43.46Zm3.69 4.38-.23.05h-.15l-.43-.1h-.08a4.08 4.08 0 0 1-1-.59l-.33-.23-.38-.28-.33-.23.15-.48.08-.41a.19.19 0 0 1 .1 0h.51l.48-.08.48-.15.46-.23.46-.31a.37.37 0 0 1 .1-.08 3.139 3.139 0 0 1 .31-.28l.38-.43c.05-.08.1-.13.13-.18a2.659 2.659 0 0 0 .2-.28l.15-.23a1 1 0 0 0 .13-.23 4 4 0 0 1 .59.25 1.78 1.78 0 0 1 .69.69.1.1 0 0 0 .05.08 2.43 2.43 0 0 1-.05 2.06.1.1 0 0 1-.05.08l-.05.15-.05.08-.33.38-.2.15-.18.15-.36.25-.33.15h-.05l-.15.08-.2.08-.38.08Zm.79 2.14-.08.1c-.05 0-.08.08-.13.1s-.2.08-.25 0 0-.25.13-.38a.45.45 0 0 1 .16-.02.23.23 0 0 1 .2-.05h.05a.791.791 0 0 1-.05.28Zm1 .74a.35.35 0 0 0-.1.08.4.4 0 0 1-.43-.05.53.53 0 0 1 0-.64.375.375 0 0 1 .46 0 1.44 1.44 0 0 0 .15.1.4.4 0 0 1-.05.51Zm.81.89a1.35 1.35 0 0 1-.23.18c-.18.1-.36.13-.43.05s0-.41.23-.66c.08-.05.13-.13.2-.15s.36-.15.46-.08 0 .41-.23.66Zm2.6-.56c-.43.74-1.2.15-1.78-.33a1.12 1.12 0 0 0-.43-.41l-.61-.43a1.56 1.56 0 0 1-.31-.41 3.35 3.35 0 0 1-.38-.13 2 2 0 0 1-.87-.48.26.26 0 0 1 0-.38 1.25 1.25 0 0 1 .33-.2 2.58 2.58 0 0 0 .38-.18l.15-.1.08-.05.26-.17.2-.18.18-.18h.05a1.91 1.91 0 0 1 .56.28 3.64 3.64 0 0 1 .76.56 5.85 5.85 0 0 1 1.5 2.09c-2-1.73-3.23-2.73-.05.74Z" fill="#231f20"/><path d="M24.335 7.749h-3.17a.36.36 0 0 1-.43-.2 2.3 2.3 0 0 1-.54.89.81.81 0 0 0 .81-.18l.23.13a.19.19 0 0 0 .1.05 1.57 1.57 0 0 1 1 .64.67.67 0 0 0 .51.13 1.08 1.08 0 0 0 .51-.2 1 1 0 0 1 .46-.48 4.33 4.33 0 0 1 1-.46c.05-.13-.1-.23-.43-.31Zm-1.48 1c-.33 0-1.1-.51-.79-.54h1.55c.31 0-.43.56-.74.56ZM23.795 7.009c.64 0 1.21-.81 1.21-1.78s-.54-1.78-1.17-1.78a1.1 1.1 0 0 0-1 .74 2.25 2.25 0 0 0-.23 1 2.33 2.33 0 0 0 .23 1 1.14 1.14 0 0 0 1 .74Zm0-3c.43 0 .76.59.76 1.3a1.61 1.61 0 0 1-.18.81 1 1 0 0 0 0-.31c0-.64-.28-1.17-.61-1.17s-.61.54-.61 1.17a1.94 1.94 0 0 0 .05.38 2 2 0 0 1-.2-.89c0-.71.33-1.3.76-1.3ZM21.195 7.009h.05c.64-.05 1.12-.84 1.12-1.78s-.48-1.73-1.12-1.78h-.05c-.66 0-1.2.79-1.2 1.78s.54 1.78 1.2 1.78Zm0-3h.05c.41 0 .71.61.71 1.3a1.61 1.61 0 0 1-.18.81 1 1 0 0 0 0-.31c0-.61-.25-1.12-.56-1.17h-.05c-.33 0-.59.54-.59 1.17a1.94 1.94 0 0 0 0 .38 2 2 0 0 1-.2-.89c0-.71.33-1.3.76-1.3ZM10.655 50.719a3.829 3.829 0 0 0-.59-.18 3.81 3.81 0 0 0-.53-.05c-.18 0-.46.05-.48.23a.6.6 0 0 0 .36.53 2 2 0 0 0 .66.2 2.77 2.77 0 0 0 .46 0c.23 0 .54-.08.59-.28s-.25-.38-.46-.48ZM11.065 49.369a3.14 3.14 0 0 0-1-.18h-.2a.56.56 0 0 0-.48.36c0 .18.2.33.38.41l.31.08a2.71 2.71 0 0 0 .89.08c.2 0 .51-.13.54-.33s-.25-.36-.43-.43ZM4.315 5.819a.36.36 0 0 0-.15-.05.11.11 0 0 0-.13 0c-.15 0-.41-.05-.48.1s.08.25.2.38.2.05.28.08.1.1.13.15.05.05.08.05c.18 0 .56.08.56-.1s-.29-.42-.49-.61Z" fill="#231f20"/></g></svg>