<svg xmlns="http://www.w3.org/2000/svg" width="175.748" height="49.906"><g fill-rule="evenodd"><path d="M-.004 0h175.752v49.906H-.004Z" fill="#fff22d"/><path d="M154.873 9.844a5.774 5.774 0 0 1 5.639 5.561c0 1.753-1.246 5.719-5.67 5.7l-122.665-.03.047 18.988H17.359V9.843h137.514Zm-17.313 3.665a1.959 1.959 0 0 1 1.957 1.722 2.143 2.143 0 0 1-1.975 1.927H32.224l.016-3.664ZM71.733 24.124c3.1 0 5.26 2.118 5.26 5.75a5.522 5.522 0 0 1-3.333 4.55l3.981 5.639H67.104l-2.622-4.849h-2.449l-.016 4.849H53.06l-.031-15.939h18.7Zm-5.277 3.651a1.829 1.829 0 0 1 1.77 1.753 1.71 1.71 0 0 1-1.77 1.771h-4.439v-3.524h4.439Zm35.212-3.649-.031 3.666-10.3-.017v2.512l9.967.016v3.665h-9.966v2.5h10.958l-.016 3.6H81.996V24.124Zm14.8 0v12.336h8.893l-.016 3.6H107.34V24.124h9.131Zm20.662 0v12.336h8.866v3.6h-17.994V24.124Zm-90.044 0v15.939h-8.89V24.124Zm101.733 0h8.9v15.939h-8.9Z" fill="#cc2229"/></g></svg>