<svg width="600" height="65" viewBox="0 0 600 65" fill="none" xmlns="http://www.w3.org/2000/svg">
<path d="M5.5 1.70001L0 21.9H17.3L6.7 62.7H33.3L43.9 21.9H61L66.5 1.70001H5.5ZM100.1 20.2C106 20.2 108.4 22.9 108.4 27.3C108.4 34.2 105.1 40.7 104.2 42.4C101.6 47.1 99.1 48.2 92.8 48.2C89.3 48.2 85 46.8 85 40.5C85 37.5 87 30.6 89.3 26.3C92.4 20.5 95.9 20.2 100.1 20.2M57.8 44.7C57.8 63.8 72 64.4 91 64.4C103.2 64.4 119.3 63.6 126 53C132.7 42.7 136.4 28.4 136.4 19.7C136.4 0.600012 118.7 0 103.2 0C87.6 0 74.9 1.50002 67.5 13.3C61.4 23 57.8 36 57.8 44.7M150.5 48.8L137.7 1.70001H166.3L169.6 28.6H169.9L185.5 1.70001H215.8L171.4 62.7H140.1L150.5 48.8ZM243.8 20.2C249.7 20.2 252.1 22.9 252.1 27.3C252.1 34.2 248.8 40.7 247.9 42.4C245.3 47.1 242.8 48.2 236.5 48.2C233 48.2 228.7 46.8 228.7 40.5C228.7 37.5 230.7 30.6 233 26.3C236.1 20.5 239.6 20.2 243.8 20.2M201.5 44.7C201.5 63.8 215.7 64.4 234.7 64.4C246.9 64.4 263 63.6 269.7 53C276.4 42.7 280.1 28.4 280.1 19.7C280.1 0.600012 262.4 0 246.9 0C231.3 0 218.6 1.50002 211.2 13.3C205.1 23 201.5 36 201.5 44.7ZM306.7 21.9H290.7L295.8 1.70001H352.3L347.2 21.9H331.3L321.5 62.7H296.9L306.7 21.9ZM356.1 1.70001H380.4L365 62.7H341.1L356.1 1.70001ZM406.5 18.8H417C420.3 18.8 422.2 20.2 422.2 23.1C422.2 27 419.8 31.5 414.3 31.5H403.4L406.5 18.8V18.8ZM371.4 62.7H395.6L400.6 41.5L412.3 62.7H440.6L424.2 37.7H428.5C438.7 37.7 446.7 30.7 446.7 15.3C446.7 6.70002 444.4 1.70001 433.6 1.70001H386.8L371.4 62.7ZM455.5 1.70001H513.9L509.2 21H475.4L473.9 27.8H507.6L504.4 40.9H470.7L469.3 46.4H503.1L499.2 62.7H440.9L455.5 1.70001ZM508.3 46.2C517.3 47.4 526.3 48.1 535.4 48.1C538 48.1 543.6 48.1 543.6 44.2C543.6 41.3 542.2 40.7 528 40.7C520.7 40.7 512.7 38 512.7 28.5C512.7 15.4 519 4.80002 528.6 1.90002C533.9 0.300024 541.6 0.100006 547.5 0.100006C555.4 0.100006 568.2 0.500024 579.8 2.40002L574.8 21.2C567.1 20.2 559.5 19.3 551.7 19.3C542.3 19.3 540 20.7 540 23.6C540 26 541.6 26.7 554 26.7C563 26.7 571 27.1 571 40C571 44.7 568.9 51.3 567.3 54.2C562.4 62.8 554.5 64.4 538.8 64.4C526.1 64.4 515.3 63.6 504.8 61.6L508.3 46.2V46.2ZM593.1 1C594.8 1 596.2 1.60001 597.3 2.70001C598.5 3.90001 599 5.20002 599 6.90002C599 8.50002 598.4 9.90001 597.3 11.1C596.1 12.3 594.7 12.8 593.1 12.8C591.4 12.8 590 12.2 588.9 11.1C587.7 9.90001 587.2 8.50002 587.2 6.90002C587.2 5.30002 587.8 3.90001 588.9 2.70001C590 1.60001 591.4 1 593.1 1ZM600 6.90002C600 5.00002 599.3 3.4 598 2C596.6 0.7 595 0 593.1 0C591.2 0 589.5 0.7 588.2 2C586.8 3.3 586.2 5.00002 586.2 6.90002C586.2 8.80002 586.9 10.4 588.2 11.8C589.6 13.2 591.2 13.8 593.1 13.8C595 13.8 596.7 13.1 598 11.8C599.4 10.5 600 8.90002 600 6.90002ZM594.9 5.5C594.9 6.1 594.6 6.50001 594.1 6.70001C593.8 6.80001 593.4 6.90002 592.8 6.90002H591.6V4.20001H592.8C593.6 4.20001 594.1 4.3 594.4 4.5C594.7 4.6 594.9 4.9 594.9 5.5M590.2 3.10001V10.7H591.5V7.70001H592.6C593.3 7.70001 593.8 7.80002 594.1 7.90002C594.6 8.20002 594.8 8.80001 594.8 9.60001V10.6H596.1L596 10.5C596 10.4 595.9 10.3 595.9 10.1V8.90002C595.9 8.50002 595.8 8.10001 595.5 7.70001C595.2 7.30001 594.8 7 594.2 7C594.7 6.9 595.1 6.80001 595.3 6.60001C595.8 6.30001 596.1 5.80001 596.1 5.10001C596.1 4.10001 595.7 3.50001 594.9 3.20001C594.5 3.00001 593.8 2.90002 592.8 2.90002H590.2V3.10001Z" fill="#006BB6"/>
</svg>
