<svg version="1.1" id="layer" xmlns="http://www.w3.org/2000/svg" x="0" y="0" viewBox="0 0 652 652" style="enable-background:new 0 0 652 652" xml:space="preserve"><style>.st0{fill:#006bb6}</style><path class="st0" d="m26.3 292-5.5 20.2h17.3L27.5 353h26.6l10.6-40.8h17.1l5.5-20.2zM120.9 310.5c5.9 0 8.3 2.7 8.3 7.1 0 6.9-3.3 13.4-4.2 15.1-2.6 4.7-5.1 5.8-11.4 5.8-3.5 0-7.8-1.4-7.8-7.7 0-3 2-9.9 4.3-14.2 3.1-5.8 6.6-6.1 10.8-6.1M78.6 335c0 19.1 14.2 19.7 33.2 19.7 12.2 0 28.3-.8 35-11.4 6.7-10.3 10.4-24.6 10.4-33.3 0-19.1-17.7-19.7-33.2-19.7-15.6 0-28.3 1.5-35.7 13.3-6.1 9.7-9.7 22.7-9.7 31.4M171.3 339.1 158.5 292h28.6l3.3 26.9h.3l15.6-26.9h30.3l-44.4 61h-31.3zM264.6 310.5c5.9 0 8.3 2.7 8.3 7.1 0 6.9-3.3 13.4-4.2 15.1-2.6 4.7-5.1 5.8-11.4 5.8-3.5 0-7.8-1.4-7.8-7.7 0-3 2-9.9 4.3-14.2 3.1-5.8 6.6-6.1 10.8-6.1M222.3 335c0 19.1 14.2 19.7 33.2 19.7 12.2 0 28.3-.8 35-11.4 6.7-10.3 10.4-24.6 10.4-33.3 0-19.1-17.7-19.7-33.2-19.7-15.6 0-28.3 1.5-35.7 13.3-6.1 9.7-9.7 22.7-9.7 31.4M327.5 312.2h-16l5.1-20.2h56.5l-5.1 20.2h-15.9l-9.8 40.8h-24.6zM376.9 292h24.3l-15.4 61h-23.9zM427.3 309.1h10.5c3.3 0 5.2 1.4 5.2 4.3 0 3.9-2.4 8.4-7.9 8.4h-10.9l3.1-12.7zM392.2 353h24.2l5-21.2 11.7 21.2h28.3L445 328h4.3c10.2 0 18.2-7 18.2-22.4 0-8.6-2.3-13.6-13.1-13.6h-46.8l-15.4 61zM476.3 292h58.4l-4.7 19.3h-33.8l-1.5 6.8h33.7l-3.2 13.1h-33.7l-1.4 5.5h33.8L520 353h-58.3zM529.1 336.5c9 1.2 18 1.9 27.1 1.9 2.6 0 8.2 0 8.2-3.9 0-2.9-1.4-3.5-15.6-3.5-7.3 0-15.3-2.7-15.3-12.2 0-13.1 6.3-23.7 15.9-26.6 5.3-1.6 13-1.8 18.9-1.8 7.9 0 20.7.4 32.3 2.3l-5 18.8c-7.7-1-15.3-1.9-23.1-1.9-9.4 0-11.7 1.4-11.7 4.3 0 2.4 1.6 3.1 14 3.1 9 0 17 .4 17 13.3 0 4.7-2.1 11.3-3.7 14.2-4.9 8.6-12.8 10.2-28.5 10.2-12.7 0-23.5-.8-34-2.8l3.5-15.4zM613.9 291.3c1.7 0 3.1.6 4.2 1.7 1.2 1.2 1.7 2.5 1.7 4.2 0 1.6-.6 3-1.7 4.2-1.2 1.2-2.6 1.7-4.2 1.7-1.7 0-3.1-.6-4.2-1.7-1.2-1.2-1.7-2.6-1.7-4.2s.6-3 1.7-4.2c1.1-1.1 2.5-1.7 4.2-1.7m6.9 5.9c0-1.9-.7-3.5-2-4.9-1.4-1.3-3-2-4.9-2-1.9 0-3.6.7-4.9 2-1.4 1.3-2 3-2 4.9 0 1.9.7 3.5 2 4.9 1.4 1.4 3 2 4.9 2 1.9 0 3.6-.7 4.9-2 1.4-1.3 2-2.9 2-4.9m-5.1-1.4c0 .6-.3 1-.8 1.2-.3.1-.7.2-1.3.2h-1.2v-2.7h1.2c.8 0 1.3.1 1.6.3.3.1.5.4.5 1m-4.7-2.4v7.6h1.3v-3h1.1c.7 0 1.2.1 1.5.2.5.3.7.9.7 1.7v1h1.3l-.1-.1c0-.1-.1-.2-.1-.4v-1.2c0-.4-.1-.8-.4-1.2-.3-.4-.7-.7-1.3-.7.5-.1.9-.2 1.1-.4.5-.3.8-.8.8-1.5 0-1-.4-1.6-1.2-1.9-.4-.2-1.1-.3-2.1-.3H611z"/></svg>