<svg width="558" height="117" fill="none" xmlns="http://www.w3.org/2000/svg"><path d="M98.867 0H30.252L0 87.665h68.872L98.867 0ZM557.67 0h-68.617l-30.25 87.665h68.872L557.67 0Z" fill="#E03626"/><path d="M156.54 8.11h-18.537s-18.151 52.523-19.954 57.157c-1.802 4.635-3.089 7.594-7.209 7.594-3.347 0-4.249-2.442-2.06-8.494 2.189-6.051 20.083-56.516 20.083-56.516H109.81s-14.415 43.3-19.567 58.059c-4.763 13.646 4.12 19.054 16.22 19.054 12.1 0 22.399-1.417 30.123-21.242S156.54 8.11 156.54 8.11Zm58.831-.129h-14.418L182.286 61.79l6.823-53.939h-25.36l-26.261 75.825h14.804l20.984-62.049-7.21 61.92h23.172l26.133-75.566Zm25.876.128h-18.023l-26.005 75.438h18.282l25.746-75.438Zm37.846 41.839c0 5.793-5.277 17.25-7.081 22.527-1.802 5.277.902 11.072.902 11.072h-18.666s-2.189-6.052.128-12.229 3.733-10.429 5.793-16.35c2.06-5.921-6.694-5.407-6.694-5.407l-11.586 33.857h-18.537l26.133-75.566h23.043c12.746 0 17.638 3.347 17.638 11.329 0 6.566-6.31 23.043-19.955 23.3.002 0 8.882-.386 8.882 7.467Zm-16.219-30.253-6.694 18.667c9.397.129 11.714-3.605 14.16-14.032 1.933-5.923-7.466-4.635-7.466-4.635Zm75.825 7.981c-5.021 15.834-5.793 17.25-11.716 33.856-5.922 16.606-15.062 23.302-29.866 23.302s-21.756-6.438-16.349-21.499c5.407-15.062 7.981-22.013 11.329-32.569 3.347-10.556 10.298-24.459 31.41-24.459 11.845-.001 20.211 5.535 15.192 21.369Zm-27.293-2.06s-11.586 32.957-14.031 40.293c-2.447 7.338 6.049 8.881 9.396-.516C310.12 55.996 318.1 33.467 320.417 26c2.318-7.465-6.178-8.753-9.011-.384Zm81.49-17.507h-18.023l-16.735 29.479 3.474-29.609h-18.278l-.516 48.276-10.041 27.42h18.409l9.398-27.678 32.312-47.888Zm13.516 75.309h-16.861l4.89-18.925h-9.009l-9.271 18.925h-16.863l39.393-75.309h23.428l-15.707 75.309Zm-3.089-60.119-14.032 30.124h7.467l6.565-30.124Zm52.525-15.32H437.44l-26.133 75.439h38.233l4.248-11.716h-20.212l22.272-63.723Zm7.809 11.14a5.79 5.79 0 0 1-1.957-1.273 6.11 6.11 0 0 1-1.336-1.955 5.684 5.684 0 0 1-.491-2.354c0-.848.164-1.638.491-2.369a5.835 5.835 0 0 1 1.352-1.94 6.41 6.41 0 0 1 1.958-1.256 6.201 6.201 0 0 1 2.32-.428c.836 0 1.622.148 2.354.445a6.18 6.18 0 0 1 1.938 1.255 6.31 6.31 0 0 1 1.32 1.924c.317.742.477 1.533.477 2.369 0 1.155-.276 2.184-.826 3.085a6.06 6.06 0 0 1-2.241 2.146 6.082 6.082 0 0 1-3.022.796c-.838 0-1.618-.15-2.337-.445Zm-1.909-3.022a4.59 4.59 0 0 0 1.781 1.813 4.836 4.836 0 0 0 2.464.652c.891 0 1.712-.217 2.464-.652a4.695 4.695 0 0 0 1.781-1.828 5.202 5.202 0 0 0 .637-2.545c0-.667-.123-1.319-.365-1.956a5.254 5.254 0 0 0-1.034-1.605 4.55 4.55 0 0 0-1.574-1.066 4.895 4.895 0 0 0-1.909-.381c-.658 0-1.287.122-1.891.366a4.914 4.914 0 0 0-1.591 1.065 4.69 4.69 0 0 0-1.05 1.606 5.63 5.63 0 0 0-.271.938 5.576 5.576 0 0 0-.095 1.034c.001.921.218 1.775.653 2.559Zm2.973.907h-1.05v-6.917h2.672c.806 0 1.409.153 1.812.462.404.317.604.816.604 1.494 0 .583-.159 1.034-.477 1.351-.33.297-.757.487-1.287.573l1.955 3.037h-1.191l-1.83-3.005h-1.208v3.005Zm1.272-3.88c.509 0 .924-.074 1.241-.223.297-.138.445-.445.445-.922 0-.678-.51-1.017-1.527-1.017h-1.431v2.162h1.272Z" fill="#000"/><path d="m90.732 103.811-.729 3.925h5.212l-.303 1.639H89.7l-1.265 6.824H86.31l2.652-14.123h9.22l-.313 1.735h-7.137Zm9.541 7.2c0-2.479.695-4.631 2.084-6.453 1.391-1.822 3.194-2.732 5.416-2.732 1.707 0 3.006.444 3.901 1.33.894.889 1.341 2.162 1.341 3.828 0 2.743-.704 5.004-2.11 6.786-1.407 1.778-3.354 2.669-5.844 2.669-1.492 0-2.663-.502-3.512-1.507-.851-1.006-1.276-2.314-1.276-3.921Zm2.156-.27c0 1.222.255 2.187.764 2.897.509.708 1.24 1.063 2.191 1.063 1.68 0 3.014-.741 4.002-2.227.989-1.484 1.483-3.25 1.483-5.292 0-2.423-1.093-3.633-3.279-3.633-1.511 0-2.75.786-3.714 2.356-.965 1.576-1.447 3.187-1.447 4.836Zm23.658 5.458-2.328-6.062c-.519 0-1.232-.033-2.135-.097l-1.133 6.158h-2.125l2.611-14.121a54.58 54.58 0 0 0 1.634-.078 39.413 39.413 0 0 1 1.999-.065c1.566 0 2.772.267 3.62.802.846.531 1.269 1.297 1.269 2.293 0 1.176-.366 2.205-1.098 3.088a4.806 4.806 0 0 1-2.758 1.685l2.763 6.399h-2.319v-.002Zm-3.309-12.388-.851 4.591c.499.062.969.094 1.407.094 1.2 0 2.167-.237 2.899-.713.732-.475 1.098-1.127 1.098-1.955 0-.766-.256-1.309-.769-1.631-.513-.319-1.369-.48-2.57-.48-.257 0-.661.03-1.214.094Zm26.366 0-.729 3.925h4.899l-.303 1.639h-4.899l-.941 5.089h6.721l-.324 1.735h-8.846l2.622-14.123h8.956l-.334 1.735h-6.822Zm15.632 12.579h-1.022l-2.875-14.312h2.226l1.883 10.304 5.505-10.304h2.297l-8.014 14.312Zm16.351-12.579-.729 3.925h4.898l-.303 1.639h-4.898l-.942 5.089h6.721l-.324 1.735h-8.846l2.622-14.123h8.956l-.334 1.735h-6.821Zm19.204 12.388-2.327-6.062c-.52 0-1.232-.033-2.135-.097l-1.133 6.158h-2.125l2.611-14.121a54.58 54.58 0 0 0 1.634-.078 39.413 39.413 0 0 1 1.999-.065c1.566 0 2.772.267 3.619.802.846.531 1.27 1.297 1.27 2.293 0 1.176-.366 2.205-1.098 3.088a4.805 4.805 0 0 1-2.759 1.685l2.764 6.399h-2.32v-.002Zm-3.309-12.388-.851 4.591c.499.062.969.094 1.407.094 1.2 0 2.167-.237 2.899-.713.731-.475 1.098-1.127 1.098-1.955 0-.766-.256-1.309-.769-1.631-.513-.319-1.369-.48-2.57-.48-.257 0-.661.03-1.214.094Zm18.159 6.063-1.173 6.324h-2.025l1.175-6.324-3.36-7.799h2.115l2.521 6.025 4.666-6.025h2.286l-6.205 7.799Zm16.291-6.063-2.287 12.388h-2.075l2.288-12.388h-4.716l.324-1.735h11.669l-.324 1.735h-4.879Zm16.625 12.388 1.266-6.824h-6.478l-1.264 6.824h-2.085l2.622-14.121h2.084l-1.052 5.66h6.477l1.053-5.66h2.065l-2.622 14.121h-2.066Zm9.64 0 2.621-14.121h2.065l-2.621 14.121h-2.065Zm20.135.191-5.789-10.021-1.74 9.83h-2.024l2.622-14.121h.809l5.667 9.621 1.711-9.621h2.004l-2.651 14.312h-.609Zm20.137-13.743-.608 1.841c-.864-.609-1.801-.916-2.813-.916-1.814 0-3.302.67-4.461 2.006-1.162 1.336-1.742 3.02-1.742 5.052 0 2.717 1.347 4.075 4.039 4.075 1.08 0 2.011-.308 2.793-.926l.617-3.307h-2.055l.305-1.638h4.078l-1.144 6.147c-1.397.973-3.175 1.456-5.334 1.456-3.638 0-5.455-1.812-5.455-5.435 0-2.708.806-4.911 2.419-6.615 1.611-1.702 3.72-2.554 6.325-2.554 1.456.003 2.469.274 3.036.814Zm21.663 7.227-1.172 6.324h-2.025l1.175-6.324-3.36-7.799h2.115l2.521 6.025 4.666-6.025h2.285l-6.205 7.799Zm9.065 1.137c0-2.479.694-4.631 2.085-6.453 1.389-1.822 3.193-2.732 5.414-2.732 1.707 0 3.007.444 3.902 1.33.893.889 1.341 2.162 1.341 3.828 0 2.743-.704 5.004-2.111 6.786-1.407 1.778-3.354 2.669-5.844 2.669-1.492 0-2.661-.502-3.513-1.507-.849-1.006-1.274-2.314-1.274-3.921Zm2.155-.27c0 1.222.256 2.187.765 2.897.509.708 1.241 1.063 2.19 1.063 1.681 0 3.014-.741 4.004-2.227.988-1.484 1.48-3.25 1.48-5.292 0-2.423-1.092-3.633-3.277-3.633-1.512 0-2.75.786-3.715 2.356-.962 1.576-1.447 3.187-1.447 4.836Zm18.083-8.666h2.124l-1.822 9.67a3.2 3.2 0 0 0-.061.606c0 .728.231 1.3.692 1.72.464.422 1.093.633 1.888.633.985 0 1.801-.268 2.449-.803.647-.531 1.061-1.267 1.236-2.205l1.812-9.621h2.084l-1.821 9.824c-.263 1.424-.938 2.541-2.019 3.338-1.085.801-2.432 1.2-4.046 1.2-1.368 0-2.452-.317-3.248-.954-.795-.635-1.194-1.475-1.194-2.516 0-.341.033-.701.103-1.08l1.823-9.812Zm29.15 14.315h-1.023l-2.874-14.312h2.228l1.883 10.304 5.506-10.304h2.295l-8.015 14.312Zm19.638-.191-.467-2.979h-5.312l-1.753 2.979h-2.268l8.675-14.313h.538l2.935 14.313h-2.348Zm-1.589-10.43-3.391 6.033h4.301l-.91-6.033Zm10.189 10.43 2.623-14.121h2.065l-2.299 12.387h6.699l-.321 1.734h-8.767Zm16.655-14.124h2.124l-1.822 9.67a3.205 3.205 0 0 0-.062.606c0 .728.232 1.3.692 1.72.463.422 1.093.633 1.889.633.984 0 1.802-.268 2.448-.803.647-.531 1.06-1.267 1.236-2.205l1.812-9.621h2.085l-1.821 9.824c-.265 1.424-.938 2.541-2.02 3.338-1.085.801-2.431 1.2-4.045 1.2-1.369 0-2.451-.317-3.247-.954-.796-.635-1.194-1.475-1.194-2.516 0-.341.032-.701.102-1.08l1.823-9.812Zm20.033 1.736-.728 3.925h4.897l-.305 1.639h-4.896l-.942 5.089h6.72l-.322 1.735h-8.847l2.62-14.123h8.958l-.335 1.735h-6.82Z" fill="#000" stroke="#000" stroke-width=".25"/><path d="M456.203 102.481h-1.302v3.621h-.757v-3.621h-1.305v-.625h3.364v.625Zm3.109 2.503 1.18-3.128h1.139v4.245h-.738v-3.447l-1.344 3.447h-.522l-1.333-3.447v3.447h-.75v-4.245h1.148l1.22 3.128Z" fill="#000"/></svg>