<svg id="Layer_1" data-name="Layer 1" xmlns="http://www.w3.org/2000/svg" viewBox="0 0 162 24"><defs><style>.cls-1{fill:#000}</style></defs><path class="cls-1" d="m49.88 3.26-3.61 7.36-3.59-7.36H39.2l5.5 10.52v6.43h3.15v-6.43l5.5-10.52h-3.47zM127.57 8.2v12.01h-3.19V3.26h4.28l4.41 12.14 4.33-12.14h4.29v16.95h-3.2V8.2l-4.29 12.01h-2.34L127.57 8.2zM72.08 12.93l5.38 7.28h3.64l-6.43-8.86 6.11-8.09h-3.77l-4.93 6.96V3.26h-3.07v16.95h3.07v-7.28zM99.09 9.93h5.86l.01-6.67h3.08v16.95h-3.08v-7.08h-5.85l-.01 7.08h-3.08V3.26h3.08l-.01 6.67zM147.93 12.6l1.8-4.73 1.85 4.74h-3.65Zm3-9.34h-2.55l-6.58 16.95h3.2l1.7-4.44h6l1.69 4.44h3.23Z"/><path d="M25.79 9 25 8.26 32.8.47h-2.16l-6.73 6.69-.76-.74L29.09.48h-2.15l-4.89 4.83-.78-.75 4.1-4.1h-2.15l-3 3-3-3H15L26.53 12 15.11 23.53h2.2L40.24.47h-2.16L27.63 10.89l-.77-.76L36.52.47h-2.16ZM13.44.47 25 12 13.57 23.53h-2.2L22.79 12 11.25.47h2.2Zm-3.72 0L21.26 12 9.85 23.53h-2.2L19.07 12 7.53.47h2.2ZM6 .47 17.54 12 6.13 23.53h-2.2L15.35 12 3.81.47H6Zm-3.72 0L13.82 12 2.41 23.53H.21L11.63 12 .09.47h2.2Z" style="fill:#e21f26"/><path class="cls-1" d="m114.42 12.6 1.8-4.73 1.85 4.73h-3.64Zm3-9.34h-2.55l-6.63 16.95h3.23l1.7-4.44h6l1.69 4.44h3.23ZM86.76 17.5a5.68 5.68 0 0 1-5.54-5.8 5.55 5.55 0 1 1 11.08 0 5.68 5.68 0 0 1-5.54 5.8m0-14.72a8.8 8.8 0 0 0-8.66 8.94 8.66 8.66 0 1 0 17.31 0 8.8 8.8 0 0 0-8.65-8.94M59.78 17.5a5.68 5.68 0 0 1-5.54-5.8 5.55 5.55 0 1 1 11.08 0 5.68 5.68 0 0 1-5.54 5.8m0-14.72a8.8 8.8 0 0 0-8.66 8.94 8.66 8.66 0 1 0 17.31 0 8.8 8.8 0 0 0-8.66-8.94M160.63 18.33a.52.52 0 0 1-.31.08h-.64v-.72h.68a.5.5 0 0 1 .23 0 .31.31 0 0 1 .16.31.33.33 0 0 1-.11.29m.36 1.09a.79.79 0 0 1 0-.18v-.28a.49.49 0 0 0-.07-.27.43.43 0 0 0-.19-.13.56.56 0 0 0 .22-.2.55.55 0 0 0 .04-.32.5.5 0 0 0-.29-.5 1 1 0 0 0-.39-.07h-1v2.12h.29v-.9h.63a.6.6 0 0 1 .25 0 .3.3 0 0 1 .15.28v.35a1.15 1.15 0 0 0 0 .17.29.29 0 0 0 0 .07h.35a.18.18 0 0 1-.09-.13"/><path class="cls-1" d="M160.21 20a1.48 1.48 0 1 1 1.48-1.48 1.49 1.49 0 0 1-1.48 1.48m0-3.19a1.7 1.7 0 1 0 1.7 1.7 1.71 1.71 0 0 0-1.7-1.7"/></svg>